<?xml version="1.0" encoding="UTF-8" standalone="no"?>
<svg
   xmlns:dc="http://purl.org/dc/elements/1.1/"
   xmlns:cc="http://creativecommons.org/ns#"
   xmlns:rdf="http://www.w3.org/1999/02/22-rdf-syntax-ns#"
   xmlns:svg="http://www.w3.org/2000/svg"
   xmlns="http://www.w3.org/2000/svg"
   viewBox="0 0 353.60001 232.39404"
   height="232.39404"
   width="353.60001"
   version="1.1"
   id="svg">
  <metadata
     id="metadata13">
    <rdf:RDF>
      <cc:Work
         rdf:about="">
        <dc:format>image/svg+xml</dc:format>
        <dc:type
           rdf:resource="http://purl.org/dc/dcmitype/StillImage" />
        <dc:title></dc:title>
      </cc:Work>
    </rdf:RDF>
  </metadata>
  <defs
     id="defs11" />
  <g
     transform="translate(-26.8,-137.20596)"
     id="svgg">
    <path
       style="fill:#fbfbfb;fill-rule:evenodd;stroke:none"
       d="m 330.4,140.38 c -18.201,2.179 -35.258,15.699 -39.262,31.12 -0.186,0.715 -0.528,1.975 -0.759,2.8 -6.161,21.942 1.31,44.752 18.518,56.544 3.399,2.329 10.484,5.956 11.635,5.956 0.314,0 1.19,0.259 1.947,0.575 4.596,1.921 19.488,2.7 25.521,1.336 15.181,-3.433 26.417,-12.142 23.419,-18.153 -2.735,-5.482 -7.807,-5.984 -14.506,-1.434 -3.709,2.518 -5.877,3.459 -11.159,4.844 -0.906,0.238 -4.395,0.432 -7.754,0.432 -3.359,0 -6.848,-0.194 -7.754,-0.432 -4.065,-1.066 -4.978,-1.365 -7.046,-2.315 -12.464,-5.724 -19.855,-19.956 -18.39,-35.411 0.603,-6.354 1.318,-9.186 3.434,-13.603 0.306,-0.639 0.556,-1.341 0.556,-1.559 0,-0.749 4.881,-6.878 6.941,-8.718 6.064,-5.414 15.339,-8.069 25.059,-7.173 4.971,0.458 6.803,1.06 12.6,4.141 0.66,0.35 2.707,2.01 4.549,3.689 5.873,5.352 9.414,5.884 13.586,2.042 2.034,-1.873 2.659,-5.49 1.324,-7.661 -2.935,-4.771 -16.147,-14.6 -19.625,-14.6 -0.245,0 -0.757,-0.173 -1.139,-0.384 -3.031,-1.674 -15.187,-2.815 -21.695,-2.036 m -203.8,12.876 c -9.014,1.12 -9.118,1.137 -15,2.52 -32.361,7.609 -60.597,33.748 -70.025,64.824 -0.267,0.88 -0.63,1.96 -0.807,2.4 -5.656,14.093 -5.462,42.531 0.435,63.6 0.965,3.447 1.412,4.733 2.919,8.4 4.131,10.048 10.491,20.8 15.614,26.396 0.405,0.442 1.269,1.539 1.92,2.438 1.847,2.548 9.664,9.686 13.837,12.636 2.078,1.468 4.078,2.942 4.445,3.274 1.043,0.944 7.887,4.704 11.862,6.517 21.69,9.892 48.646,10.428 71.2,1.415 3.08,-1.231 7.288,-3.191 9.351,-4.357 2.063,-1.165 3.832,-2.119 3.93,-2.119 1.681,0 14.576,-10.679 19.68,-16.298 4.739,-5.217 4.594,-5.382 4.854,5.503 0.22,9.231 0.331,9.936 2.115,13.458 5.428,10.711 22.027,12.305 29.514,2.834 1.49,-1.886 2.028,-2.875 3.209,-5.897 0.798,-2.042 0.809,-96.133 0.012,-101.2 -1.991,-12.659 -5.498,-24.219 -9.77,-32.2 -0.235,-0.44 -1.005,-1.907 -1.711,-3.259 -1.319,-2.53 -8.208,-12.759 -9.793,-14.541 -0.489,-0.55 -2.135,-2.471 -3.657,-4.269 -7.976,-9.421 -21.7,-19.155 -35.734,-25.348 -12.085,-5.332 -34.52,-8.45 -48.4,-6.727 m 16.7,31.344 c 25.24,2.014 47.385,20.23 55.191,45.4 1.155,3.724 1.673,5.972 2.765,12 0.727,4.009 0.735,19.517 0.013,23.6 -1.248,7.057 -2.998,13.241 -4.979,17.6 -0.55,1.21 -1.37,3.01 -1.821,4 -7.453,16.342 -25.139,30.152 -43.532,33.993 -11.453,2.392 -26.857,1.674 -34.737,-1.618 -0.44,-0.184 -1.649,-0.61 -2.686,-0.945 -8.216,-2.661 -19.897,-10.812 -25.834,-18.03 -1.448,-1.76 -2.746,-3.29 -2.884,-3.4 -3.369,-2.679 -10.971,-19.778 -12.359,-27.8 -0.267,-1.54 -0.686,-3.7 -0.931,-4.8 -0.576,-2.585 -0.583,-18.966 -0.01,-21.6 0.24,-1.1 0.658,-3.35 0.929,-5 0.435,-2.649 2.569,-10.002 3.541,-12.2 7.392,-16.725 17.723,-28.088 31.747,-34.918 11.256,-5.482 21.954,-7.37 35.587,-6.282"
       id="path0" />
    <path
       style="fill:#aaa5a6;fill-rule:evenodd;stroke:none"
       d="m 329.6,137.6 c -0.43,0.278 -0.003,0.389 1.5,0.394 1.155,0.003 2.1,-0.174 2.1,-0.394 0,-0.512 -2.808,-0.512 -3.6,0 m 11.2,0 c 0.802,0.518 3.32,0.518 3,0 -0.136,-0.22 -1.002,-0.397 -1.924,-0.394 -1.229,0.005 -1.516,0.11 -1.076,0.394 m -16.4,0.8 c -0.33,0.213 -1.05,0.397 -1.6,0.408 -1.384,0.028 -3.42,1.157 -2.124,1.178 0.482,0.008 0.988,-0.166 1.124,-0.386 0.136,-0.22 1.059,-0.4 2.052,-0.4 1.071,0 2.049,-0.244 2.405,-0.6 0.721,-0.721 -0.797,-0.885 -1.857,-0.2 m 22.5,-0.156 c 0.385,0.118 0.7,0.381 0.7,0.585 0,0.204 0.709,0.371 1.576,0.371 0.867,0 1.688,0.18 1.824,0.4 0.136,0.22 0.642,0.395 1.124,0.388 1.964,-0.027 -0.975,-1.12 -4.724,-1.756 -0.66,-0.112 -0.885,-0.107 -0.5,0.012 m -29.5,2.156 c -0.14,0.227 0.196,0.4 0.776,0.4 0.563,0 1.024,-0.18 1.024,-0.4 0,-0.22 -0.349,-0.4 -0.776,-0.4 -0.427,0 -0.888,0.18 -1.024,0.4 m 36.341,-0.126 c 0.364,0.364 3.19,1.329 3.369,1.15 0.217,-0.218 -2.357,-1.424 -3.038,-1.424 -0.333,0 -0.482,0.123 -0.331,0.274 M 315.2,141.2 c 0,0.22 0.27,0.4 0.6,0.4 0.33,0 0.6,-0.18 0.6,-0.4 0,-0.22 -0.27,-0.4 -0.6,-0.4 -0.33,0 -0.6,0.18 -0.6,0.4 m -2,0.79 c -0.33,0.189 -1.23,0.642 -2,1.006 -1.937,0.916 -3.073,1.574 -3.897,2.257 -0.387,0.32 -1.243,0.844 -1.903,1.164 -0.66,0.321 -1.979,1.303 -2.931,2.183 -0.952,0.88 -1.931,1.672 -2.177,1.759 -0.677,0.241 -2.292,1.948 -2.292,2.423 0,0.23 -0.188,0.418 -0.418,0.418 -0.486,0 -2.38,1.812 -2.385,2.282 -0.002,0.175 -0.804,1.128 -1.782,2.118 -0.978,0.99 -1.787,1.991 -1.797,2.225 -0.01,0.233 -0.333,0.773 -0.718,1.2 -0.723,0.8 -1.957,2.932 -3.113,5.375 -0.364,0.77 -1.005,2.092 -1.424,2.938 -0.42,0.846 -0.763,1.87 -0.763,2.276 0,0.406 -0.18,0.85 -0.4,0.986 -0.22,0.136 -0.4,0.755 -0.4,1.375 0,0.62 -0.27,1.351 -0.6,1.625 -0.33,0.274 -0.6,1.095 -0.6,1.825 0,0.73 -0.18,1.439 -0.4,1.575 -0.22,0.136 -0.4,1.126 -0.4,2.2 0,1.074 -0.18,2.064 -0.4,2.2 -0.507,0.313 -0.546,20.285 -0.041,20.82 0.197,0.209 0.461,1.1 0.585,1.98 0.504,3.578 0.766,4.593 1.298,5.035 0.307,0.255 0.558,0.97 0.558,1.59 0,0.62 0.18,1.239 0.4,1.375 0.22,0.136 0.4,0.58 0.4,0.986 0,0.406 0.343,1.43 0.763,2.276 0.419,0.846 1.057,2.168 1.416,2.938 0.782,1.673 2.21,4.121 2.567,4.4 0.14,0.11 0.525,0.74 0.855,1.4 0.329,0.66 1.182,1.83 1.896,2.6 0.713,0.77 1.298,1.541 1.3,1.713 0.005,0.468 2.712,3.087 3.19,3.087 0.227,0 0.413,0.188 0.413,0.418 0,0.486 1.812,2.38 2.282,2.385 0.175,0.002 1.128,0.804 2.118,1.782 0.99,0.978 2.003,1.787 2.251,1.797 0.248,0.01 0.683,0.297 0.965,0.638 0.283,0.341 1.25,0.957 2.149,1.369 0.899,0.413 2.007,1.1 2.462,1.528 0.455,0.428 1.535,1.006 2.4,1.283 0.865,0.277 2.265,0.841 3.111,1.252 0.846,0.412 1.87,0.748 2.276,0.748 0.406,0 0.85,0.18 0.986,0.4 0.136,0.22 0.732,0.406 1.324,0.414 0.592,0.008 1.526,0.272 2.076,0.586 0.55,0.314 1.639,0.578 2.42,0.586 0.781,0.008 1.591,0.176 1.8,0.375 1.237,1.174 19.733,1.209 22.38,0.041 0.44,-0.194 1.43,-0.431 2.2,-0.527 1.372,-0.171 3.514,-0.84 4.895,-1.529 0.382,-0.19 1.032,-0.346 1.444,-0.346 0.413,0 2.15,-0.72 3.861,-1.6 1.711,-0.88 3.336,-1.6 3.612,-1.6 0.277,0 0.606,-0.27 0.733,-0.6 0.126,-0.33 0.506,-0.6 0.842,-0.6 0.337,0 0.613,-0.18 0.613,-0.4 0,-0.22 0.236,-0.4 0.525,-0.4 0.288,0 0.911,-0.36 1.383,-0.8 0.472,-0.44 1.009,-0.8 1.192,-0.8 0.183,0 1.128,-0.81 2.1,-1.8 0.972,-0.99 1.999,-1.8 2.283,-1.8 0.284,0 0.517,-0.248 0.517,-0.551 0,-0.303 0.266,-0.772 0.592,-1.042 0.835,-0.693 1.808,-2.762 1.808,-3.845 0,-0.503 0.18,-1.026 0.4,-1.162 0.22,-0.136 0.4,-1.306 0.4,-2.6 0,-1.294 -0.18,-2.464 -0.4,-2.6 -0.22,-0.136 -0.4,-0.67 -0.4,-1.186 0,-2.224 -3.768,-7.205 -6.499,-8.591 -1.745,-0.885 -1.678,-0.266 0.18,1.682 6.775,7.099 -0.978,17.068 -17.281,22.22 -2.469,0.78 -3.879,1.09 -9.367,2.058 -23.234,4.096 -47.658,-10.874 -55.443,-33.983 -2.766,-8.21 -3.524,-28.884 -1.151,-31.38 0.198,-0.209 0.361,-0.873 0.361,-1.476 0,-0.603 0.18,-1.208 0.4,-1.344 0.22,-0.136 0.4,-0.707 0.4,-1.269 0,-0.866 3.365,-8.736 3.99,-9.331 0.252,-0.24 1.147,-1.784 1.913,-3.3 0.306,-0.605 0.684,-1.1 0.84,-1.1 0.157,0 0.623,-0.585 1.037,-1.3 0.722,-1.248 6.983,-7.673 8.283,-8.5 0.346,-0.22 1.647,-1.075 2.891,-1.9 1.244,-0.825 2.438,-1.5 2.654,-1.5 0.215,0 0.392,-0.18 0.392,-0.4 0,-0.22 0.36,-0.4 0.8,-0.4 0.44,0 0.8,-0.16 0.8,-0.357 0,-0.196 0.45,-0.469 1,-0.607 0.55,-0.138 1,-0.428 1,-0.644 0,-0.472 -0.776,-0.473 -1.6,-0.002 m 44.732,0.128 c 0.236,0.285 1.068,0.768 1.849,1.074 0.78,0.307 1.419,0.704 1.419,0.883 0,0.179 0.345,0.325 0.767,0.325 0.421,0 0.826,0.145 0.9,0.323 0.073,0.178 0.98,0.901 2.015,1.607 11.828,8.067 13.976,17.568 4.938,21.843 -4.409,2.086 -7.345,1.216 -12.62,-3.739 -8.652,-8.128 -24.403,-10.533 -33.8,-5.159 -0.44,0.251 -1.633,0.922 -2.651,1.491 -5.245,2.929 -9.467,8.205 -12.351,15.434 -1.989,4.985 -2.489,19.147 -0.819,23.2 0.181,0.44 0.571,1.61 0.867,2.6 0.488,1.636 1.253,3.281 2.798,6.015 0.306,0.542 0.647,1.075 0.758,1.185 0.112,0.11 0.733,0.92 1.382,1.8 1.529,2.075 5.039,5.4 5.701,5.4 0.283,0 0.515,0.151 0.515,0.335 0,0.184 1.395,1.039 3.1,1.9 1.705,0.861 3.16,1.7 3.233,1.865 0.074,0.165 0.659,0.3 1.3,0.3 0.642,0 1.167,0.18 1.167,0.4 0,0.22 0.652,0.4 1.449,0.4 1.243,0 1.378,-0.085 0.951,-0.6 -0.274,-0.33 -1.005,-0.6 -1.625,-0.6 -0.62,0 -1.239,-0.18 -1.375,-0.4 -0.136,-0.22 -0.569,-0.4 -0.962,-0.4 -0.912,0 -3.006,-1.039 -3.645,-1.808 -0.27,-0.326 -0.689,-0.592 -0.93,-0.592 -0.619,0 -5.063,-4.466 -5.063,-5.087 0,-0.282 -0.159,-0.513 -0.354,-0.513 -0.195,0 -0.657,-0.585 -1.026,-1.3 -0.369,-0.715 -1.184,-2.2 -1.81,-3.3 -0.625,-1.1 -1.154,-2.484 -1.174,-3.076 -0.02,-0.592 -0.216,-1.188 -0.436,-1.324 -0.22,-0.136 -0.4,-1.281 -0.4,-2.544 0,-1.263 -0.194,-2.49 -0.432,-2.728 -0.61,-0.61 0.162,-11.578 0.866,-12.308 0.201,-0.209 0.382,-1.019 0.402,-1.8 0.02,-0.781 0.554,-2.32 1.186,-3.42 0.633,-1.1 1.318,-2.367 1.523,-2.816 0.204,-0.449 0.66,-1.057 1.013,-1.349 0.353,-0.293 0.642,-0.746 0.642,-1.006 0,-0.515 2.446,-3.029 2.948,-3.029 0.405,0 1.449,-1.05 1.462,-1.471 0.015,-0.482 5.257,-2.929 6.274,-2.929 0.478,0 0.98,-0.18 1.116,-0.4 0.136,-0.22 0.822,-0.406 1.524,-0.414 0.702,-0.008 1.726,-0.272 2.276,-0.586 1.412,-0.807 6.93,-0.807 7.6,0 0.317,0.381 1.2,0.6 2.425,0.6 1.06,0 2.039,0.18 2.175,0.4 0.136,0.22 0.58,0.4 0.986,0.4 0.798,0 4.129,1.609 4.347,2.1 0.074,0.165 0.327,0.3 0.562,0.3 0.236,0 1.081,0.675 1.877,1.5 0.797,0.825 1.939,1.858 2.538,2.295 0.6,0.437 1.09,1.022 1.09,1.3 0,0.278 0.252,0.505 0.559,0.505 0.308,0 1.586,0.54 2.841,1.2 2.388,1.256 9.767,1.824 10.4,0.8 0.136,-0.22 0.561,-0.4 0.944,-0.4 0.875,0 2.849,-0.899 2.853,-1.3 0.002,-0.165 0.273,-0.3 0.603,-0.3 0.33,0 0.6,-0.27 0.6,-0.6 0,-0.33 0.276,-0.6 0.613,-0.6 0.336,0 0.728,-0.315 0.87,-0.7 0.142,-0.385 0.371,-0.79 0.509,-0.9 0.137,-0.11 0.56,-0.867 0.94,-1.683 0.379,-0.816 0.865,-1.591 1.079,-1.724 0.214,-0.132 0.389,-0.669 0.389,-1.193 0,-0.524 0.18,-1.064 0.4,-1.2 0.22,-0.136 0.4,-1.126 0.4,-2.2 0,-1.074 -0.18,-2.064 -0.4,-2.2 -0.22,-0.136 -0.4,-0.823 -0.4,-1.528 0,-0.811 -0.366,-1.675 -1,-2.359 -0.55,-0.593 -1,-1.238 -1,-1.434 0,-0.195 -0.36,-0.681 -0.8,-1.079 -0.44,-0.398 -0.8,-0.889 -0.8,-1.091 0,-0.503 -1.047,-1.509 -1.571,-1.509 -0.236,0 -0.429,-0.188 -0.429,-0.418 0,-0.486 -1.812,-2.38 -2.282,-2.385 -0.175,-0.002 -1.128,-0.804 -2.118,-1.782 -0.99,-0.978 -1.997,-1.787 -2.238,-1.797 -0.241,-0.01 -0.732,-0.343 -1.091,-0.74 -0.36,-0.397 -1.288,-0.971 -2.062,-1.275 -0.775,-0.304 -1.409,-0.789 -1.409,-1.078 0,-0.289 -0.36,-0.525 -0.8,-0.525 -0.44,0 -0.8,-0.18 -0.8,-0.4 0,-0.22 -0.45,-0.4 -1,-0.4 -0.55,0 -1,-0.18 -1,-0.4 0,-0.22 -0.382,-0.4 -0.849,-0.4 -0.649,0 -0.748,0.122 -0.419,0.518 M 124,150 c 0,0.231 -1.267,0.4 -3,0.4 -1.733,0 -3,0.169 -3,0.4 0,0.226 -1.133,0.4 -2.6,0.4 -1.467,0 -2.6,0.174 -2.6,0.4 0,0.22 -0.81,0.4 -1.8,0.4 -1.333,0 -1.8,0.156 -1.8,0.6 0,0.444 -0.467,0.6 -1.8,0.6 -0.99,0 -1.8,0.18 -1.8,0.4 0,0.22 -0.54,0.4 -1.2,0.4 -0.66,0 -1.2,0.18 -1.2,0.4 0,0.22 -0.63,0.4 -1.4,0.4 -0.77,0 -1.4,0.18 -1.4,0.4 0,0.22 -0.54,0.4 -1.2,0.4 -0.66,0 -1.2,0.18 -1.2,0.4 0,0.22 -0.63,0.4 -1.4,0.4 -0.978,0 -1.4,0.181 -1.4,0.6 0,0.333 -0.356,0.6 -0.8,0.6 -0.44,0 -0.8,0.18 -0.8,0.4 0,0.22 -0.63,0.4 -1.4,0.4 -0.77,0 -1.4,0.18 -1.4,0.4 0,0.22 -0.36,0.4 -0.8,0.4 -0.44,0 -0.8,0.18 -0.8,0.4 0,0.22 -0.45,0.4 -1,0.4 -0.55,0 -1,0.18 -1,0.4 0,0.22 -0.36,0.4 -0.8,0.4 -0.44,0 -0.8,0.18 -0.8,0.4 0,0.22 -0.45,0.4 -1,0.4 -0.622,0 -1,0.227 -1,0.6 0,0.33 -0.32,0.6 -0.712,0.6 -0.391,0 -0.971,0.36 -1.288,0.8 -0.317,0.44 -0.987,0.8 -1.488,0.8 -0.502,0 -0.912,0.18 -0.912,0.4 0,0.22 -0.283,0.4 -0.629,0.4 -0.718,0 -1.771,0.934 -1.771,1.571 0,0.236 -0.36,0.429 -0.8,0.429 -0.44,0 -0.8,0.18 -0.8,0.4 0,0.22 -0.27,0.4 -0.6,0.4 -0.33,0 -0.6,0.18 -0.6,0.4 0,0.22 -0.278,0.4 -0.618,0.4 -0.696,0 -2.582,1.74 -2.582,2.382 0,0.23 -0.378,0.418 -0.84,0.418 -0.461,0 -1.343,0.54 -1.96,1.2 -0.617,0.66 -1.422,1.2 -1.789,1.2 -0.646,0 -1.811,0.891 -1.811,1.385 0,0.315 -2.7,3.015 -3.015,3.015 -0.314,0 -1.385,1.071 -1.385,1.385 0,0.309 -2.697,3.015 -3.005,3.015 -0.304,0 -2.195,1.895 -2.195,2.2 0,0.406 -1.942,2.2 -2.382,2.2 -0.23,0 -0.418,0.36 -0.418,0.8 0,0.44 -0.18,0.8 -0.4,0.8 -0.22,0 -0.4,0.198 -0.4,0.44 0,0.241 -0.54,0.943 -1.2,1.56 -0.66,0.617 -1.2,1.409 -1.2,1.76 0,0.352 -0.18,0.64 -0.4,0.64 -0.22,0 -0.4,0.27 -0.4,0.6 0,0.33 -0.27,0.6 -0.6,0.6 -0.33,0 -0.6,0.32 -0.6,0.712 0,0.391 -0.36,0.971 -0.8,1.288 -0.44,0.317 -0.8,0.947 -0.8,1.4 0,0.453 -0.36,1.083 -0.8,1.4 -0.44,0.317 -0.8,0.897 -0.8,1.288 0,0.392 -0.193,0.712 -0.429,0.712 -0.705,0 -1.571,1.086 -1.571,1.971 0,0.456 -0.18,0.829 -0.4,0.829 -0.22,0 -0.4,0.36 -0.4,0.8 0,0.44 -0.18,0.8 -0.4,0.8 -0.22,0 -0.4,0.36 -0.4,0.8 0,0.44 -0.18,0.8 -0.4,0.8 -0.22,0 -0.4,0.45 -0.4,1 0,0.622 -0.227,1 -0.6,1 -0.333,0 -0.6,0.356 -0.6,0.8 0,0.44 -0.18,0.8 -0.4,0.8 -0.22,0 -0.4,0.45 -0.4,1 0,0.55 -0.18,1 -0.4,1 -0.22,0 -0.4,0.36 -0.4,0.8 0,0.44 -0.18,0.8 -0.4,0.8 -0.22,0 -0.4,0.36 -0.4,0.8 0,0.44 -0.18,0.8 -0.4,0.8 -0.22,0 -0.4,0.63 -0.4,1.4 0,0.978 -0.181,1.4 -0.6,1.4 -0.419,0 -0.6,0.422 -0.6,1.4 0,0.77 -0.18,1.4 -0.4,1.4 -0.22,0 -0.4,0.54 -0.4,1.2 0,0.66 -0.18,1.2 -0.4,1.2 -0.22,0 -0.4,0.63 -0.4,1.4 0,0.77 -0.18,1.4 -0.4,1.4 -0.22,0 -0.4,0.72 -0.4,1.6 0,0.88 -0.18,1.6 -0.4,1.6 -0.22,0 -0.4,0.81 -0.4,1.8 0,1.333 -0.156,1.8 -0.6,1.8 -0.461,0 -0.6,0.511 -0.6,2.2 0,1.21 -0.18,2.2 -0.4,2.2 -0.22,0 -0.4,0.99 -0.4,2.2 0,1.21 -0.18,2.2 -0.4,2.2 -0.24,0 -0.4,1.6 -0.4,4 0,2.4 -0.16,4 -0.4,4 -0.255,0 -0.4,3.333 -0.4,9.2 0,5.867 0.145,9.2 0.4,9.2 0.24,0 0.4,1.6 0.4,4 0,2.4 0.16,4 0.4,4 0.231,0 0.4,1.267 0.4,3 0,1.733 0.169,3 0.4,3 0.22,0 0.4,0.99 0.4,2.2 0,1.689 0.139,2.2 0.6,2.2 0.444,0 0.6,0.467 0.6,1.8 0,0.99 0.18,1.8 0.4,1.8 0.22,0 0.4,0.81 0.4,1.8 0,0.99 0.18,1.8 0.4,1.8 0.22,0 0.4,0.54 0.4,1.2 0,0.66 0.18,1.2 0.4,1.2 0.22,0 0.4,0.63 0.4,1.4 0,0.77 0.18,1.4 0.4,1.4 0.22,0 0.4,0.54 0.4,1.2 0,0.8 0.2,1.2 0.6,1.2 0.373,0 0.6,0.378 0.6,1 0,0.55 0.18,1 0.4,1 0.22,0 0.4,0.54 0.4,1.2 0,0.66 0.18,1.2 0.4,1.2 0.22,0 0.4,0.45 0.4,1 0,0.55 0.18,1 0.4,1 0.22,0 0.4,0.36 0.4,0.8 0,0.44 0.18,0.8 0.4,0.8 0.22,0 0.4,0.45 0.4,1 0,0.622 0.227,1 0.6,1 0.4,0 0.6,0.4 0.6,1.2 0,0.66 0.18,1.2 0.4,1.2 0.22,0 0.4,0.36 0.4,0.8 0,0.44 0.18,0.8 0.4,0.8 0.22,0 0.4,0.27 0.4,0.6 0,0.33 0.18,0.6 0.4,0.6 0.22,0 0.4,0.36 0.4,0.8 0,0.44 0.18,0.8 0.4,0.8 0.22,0 0.4,0.36 0.4,0.8 0,0.444 0.267,0.8 0.6,0.8 0.33,0 0.6,0.27 0.6,0.6 0,0.33 0.18,0.6 0.4,0.6 0.22,0 0.4,0.36 0.4,0.8 0,0.44 0.18,0.8 0.4,0.8 0.22,0 0.4,0.36 0.4,0.8 0,0.44 0.18,0.8 0.4,0.8 0.22,0 0.4,0.27 0.4,0.6 0,0.33 0.18,0.6 0.4,0.6 0.22,0 0.4,0.36 0.4,0.8 0,0.44 0.188,0.8 0.418,0.8 0.648,0 2.382,1.889 2.382,2.595 0,0.699 2.533,3.405 3.187,3.405 0.227,0 0.413,0.365 0.413,0.811 0,0.824 3.24,4.389 3.989,4.389 0.226,0 0.411,0.185 0.411,0.411 0,0.534 3.455,3.989 3.989,3.989 0.226,0 0.411,0.185 0.411,0.411 0,0.749 3.565,3.989 4.389,3.989 0.446,0 0.811,0.188 0.811,0.418 0,0.692 1.911,2.382 2.694,2.382 0.401,0 0.989,0.36 1.306,0.8 0.317,0.44 0.897,0.8 1.288,0.8 0.392,0 0.712,0.193 0.712,0.429 0,0.677 1.072,1.571 1.883,1.571 0.407,0 1,0.36 1.317,0.8 0.317,0.44 0.82,0.8 1.117,0.8 0.645,0 1.683,0.969 1.683,1.571 0,0.236 0.45,0.429 1,0.429 0.55,0 1,0.18 1,0.4 0,0.22 0.36,0.4 0.8,0.4 0.44,0 0.8,0.18 0.8,0.4 0,0.22 0.45,0.4 1,0.4 0.55,0 1,0.18 1,0.4 0,0.22 0.36,0.4 0.8,0.4 0.44,0 0.8,0.18 0.8,0.4 0,0.22 0.36,0.4 0.8,0.4 0.44,0 0.8,0.18 0.8,0.4 0,0.22 0.63,0.4 1.4,0.4 0.978,0 1.4,0.181 1.4,0.6 0,0.333 0.356,0.6 0.8,0.6 0.44,0 0.8,0.18 0.8,0.4 0,0.22 0.63,0.4 1.4,0.4 0.77,0 1.4,0.18 1.4,0.4 0,0.22 0.63,0.4 1.4,0.4 0.77,0 1.4,0.18 1.4,0.4 0,0.22 0.54,0.4 1.2,0.4 0.66,0 1.2,0.18 1.2,0.4 0,0.22 0.63,0.4 1.4,0.4 0.978,0 1.4,0.181 1.4,0.6 0,0.461 0.511,0.6 2.2,0.6 1.21,0 2.2,0.18 2.2,0.4 0,0.22 0.99,0.4 2.2,0.4 1.21,0 2.2,0.18 2.2,0.4 0,0.231 1.267,0.4 3,0.4 1.733,0 3,0.169 3,0.4 0,0.257 3.933,0.4 11,0.4 7.067,0 11,-0.143 11,-0.4 0,-0.235 1.4,-0.4 3.4,-0.4 2,0 3.4,-0.165 3.4,-0.4 0,-0.22 0.99,-0.4 2.2,-0.4 1.21,0 2.2,-0.18 2.2,-0.4 0,-0.22 0.81,-0.4 1.8,-0.4 1.333,0 1.8,-0.156 1.8,-0.6 0,-0.419 0.422,-0.6 1.4,-0.6 0.77,0 1.4,-0.18 1.4,-0.4 0,-0.22 0.81,-0.4 1.8,-0.4 0.99,0 1.8,-0.18 1.8,-0.4 0,-0.22 0.54,-0.4 1.2,-0.4 0.66,0 1.2,-0.18 1.2,-0.4 0,-0.22 0.45,-0.4 1,-0.4 0.55,0 1,-0.18 1,-0.4 0,-0.22 0.54,-0.4 1.2,-0.4 0.8,0 1.2,-0.2 1.2,-0.6 0,-0.333 0.356,-0.6 0.8,-0.6 0.44,0 0.8,-0.18 0.8,-0.4 0,-0.22 0.45,-0.4 1,-0.4 0.55,0 1,-0.18 1,-0.4 0,-0.22 0.36,-0.4 0.8,-0.4 0.44,0 0.8,-0.18 0.8,-0.4 0,-0.22 0.45,-0.4 1,-0.4 0.55,0 1,-0.18 1,-0.4 0,-0.22 0.36,-0.4 0.8,-0.4 0.44,0 0.8,-0.18 0.8,-0.4 0,-0.22 0.36,-0.4 0.8,-0.4 0.444,0 0.8,-0.267 0.8,-0.6 0,-0.373 0.378,-0.6 1,-0.6 0.55,0 1,-0.18 1,-0.4 0,-0.22 0.32,-0.4 0.712,-0.4 0.391,0 0.971,-0.36 1.288,-0.8 0.317,-0.44 0.91,-0.8 1.317,-0.8 0.811,0 1.883,-0.894 1.883,-1.571 0,-0.236 0.36,-0.429 0.8,-0.429 0.44,0 0.8,-0.18 0.8,-0.4 0,-0.22 0.23,-0.4 0.512,-0.4 0.281,0 0.771,-0.36 1.088,-0.8 0.402,-0.557 1.035,-0.8 2.088,-0.8 1.245,0 1.512,0.141 1.512,0.8 0,0.444 0.267,0.8 0.6,0.8 0.373,0 0.6,0.378 0.6,1 0,0.55 0.18,1 0.4,1 0.22,0 0.4,0.36 0.4,0.8 0,0.44 0.18,0.8 0.4,0.8 0.22,0 0.4,0.36 0.4,0.8 0,0.44 0.18,0.8 0.4,0.8 0.22,0 0.4,0.27 0.4,0.6 0,0.33 0.18,0.6 0.4,0.6 0.22,0 0.4,0.36 0.4,0.8 0,0.44 0.186,0.8 0.413,0.8 0.538,0 3.187,2.649 3.187,3.187 0,0.227 0.36,0.413 0.8,0.413 0.44,0 0.8,0.18 0.8,0.4 0,0.22 0.27,0.4 0.6,0.4 0.33,0 0.6,0.18 0.6,0.4 0,0.22 0.32,0.4 0.712,0.4 0.391,0 0.971,0.36 1.288,0.8 0.375,0.52 1.035,0.8 1.888,0.8 0.9,0 1.312,0.189 1.312,0.6 0,0.4 0.4,0.6 1.2,0.6 0.66,0 1.2,0.18 1.2,0.4 0,0.22 0.99,0.4 2.2,0.4 1.21,0 2.2,0.18 2.2,0.4 0,0.237 1.467,0.4 3.6,0.4 2.133,0 3.6,-0.163 3.6,-0.4 0,-0.22 0.99,-0.4 2.2,-0.4 1.21,0 2.2,-0.18 2.2,-0.4 0,-0.22 0.63,-0.4 1.4,-0.4 0.978,0 1.4,-0.181 1.4,-0.6 0,-0.333 0.356,-0.6 0.8,-0.6 0.44,0 0.8,-0.18 0.8,-0.4 0,-0.22 0.36,-0.4 0.8,-0.4 0.44,0 0.8,-0.18 0.8,-0.4 0,-0.22 0.27,-0.4 0.6,-0.4 0.33,0 0.6,-0.18 0.6,-0.4 0,-0.22 0.283,-0.4 0.629,-0.4 0.623,0 1.771,-0.907 1.771,-1.4 0,-0.326 1.063,-1.4 1.385,-1.4 0.57,0 3.015,-2.837 3.015,-3.498 0,-0.399 0.36,-0.985 0.8,-1.302 0.44,-0.317 0.8,-0.897 0.8,-1.288 0,-0.392 0.27,-0.712 0.6,-0.712 0.373,0 0.6,-0.378 0.6,-1 0,-0.55 0.18,-1 0.4,-1 0.22,0 0.4,-0.54 0.4,-1.2 0,-0.66 0.18,-1.2 0.4,-1.2 0.226,0 0.4,-1.133 0.4,-2.6 0,-1.467 0.174,-2.6 0.4,-2.6 0.264,0 0.4,-15.933 0.4,-47 0,-31.067 -0.136,-47 -0.4,-47 -0.24,0 -0.4,-1.6 -0.4,-4 0,-2.4 -0.16,-4 -0.4,-4 -0.226,0 -0.4,-1.133 -0.4,-2.6 0,-1.467 -0.174,-2.6 -0.4,-2.6 -0.22,0 -0.4,-0.81 -0.4,-1.8 0,-1.333 -0.156,-1.8 -0.6,-1.8 -0.461,0 -0.6,-0.511 -0.6,-2.2 0,-1.21 -0.18,-2.2 -0.4,-2.2 -0.22,0 -0.4,-0.54 -0.4,-1.2 0,-0.66 -0.18,-1.2 -0.4,-1.2 -0.22,0 -0.4,-0.63 -0.4,-1.4 0,-0.77 -0.18,-1.4 -0.4,-1.4 -0.22,0 -0.4,-0.54 -0.4,-1.2 0,-0.66 -0.18,-1.2 -0.4,-1.2 -0.22,0 -0.4,-0.63 -0.4,-1.4 0,-0.77 -0.18,-1.4 -0.4,-1.4 -0.22,0 -0.4,-0.36 -0.4,-0.8 0,-0.444 -0.267,-0.8 -0.6,-0.8 -0.419,0 -0.6,-0.422 -0.6,-1.4 0,-0.77 -0.18,-1.4 -0.4,-1.4 -0.22,0 -0.4,-0.36 -0.4,-0.8 0,-0.44 -0.18,-0.8 -0.4,-0.8 -0.22,0 -0.4,-0.45 -0.4,-1 0,-0.55 -0.18,-1 -0.4,-1 -0.22,0 -0.4,-0.36 -0.4,-0.8 0,-0.44 -0.18,-0.8 -0.4,-0.8 -0.22,0 -0.4,-0.45 -0.4,-1 0,-0.622 -0.227,-1 -0.6,-1 -0.333,0 -0.6,-0.356 -0.6,-0.8 0,-0.44 -0.18,-0.8 -0.4,-0.8 -0.22,0 -0.4,-0.36 -0.4,-0.8 0,-0.44 -0.18,-0.8 -0.4,-0.8 -0.22,0 -0.4,-0.41 -0.4,-0.912 0,-0.501 -0.36,-1.171 -0.8,-1.488 -0.44,-0.317 -0.8,-0.897 -0.8,-1.288 0,-0.392 -0.193,-0.712 -0.429,-0.712 -0.677,0 -1.571,-1.072 -1.571,-1.883 0,-0.407 -0.36,-1 -0.8,-1.317 -0.44,-0.317 -0.8,-0.897 -0.8,-1.288 0,-0.392 -0.18,-0.712 -0.4,-0.712 -0.22,0 -0.4,-0.27 -0.4,-0.6 0,-0.33 -0.193,-0.6 -0.429,-0.6 -0.602,0 -1.571,-1.038 -1.571,-1.683 0,-0.297 -0.36,-0.8 -0.8,-1.117 -0.44,-0.317 -0.8,-0.73 -0.8,-0.917 0,-0.482 -1.061,-1.483 -1.571,-1.483 -0.236,0 -0.429,-0.32 -0.429,-0.712 0,-0.391 -0.36,-0.971 -0.8,-1.288 -0.44,-0.317 -0.8,-0.723 -0.8,-0.902 0,-0.367 -2.648,-3.098 -3.005,-3.098 -0.304,0 -2.195,-1.895 -2.195,-2.2 0,-0.308 -1.892,-2.2 -2.2,-2.2 -0.406,0 -2.2,-1.942 -2.2,-2.382 0,-0.23 -0.36,-0.418 -0.8,-0.418 -0.44,0 -0.8,-0.18 -0.8,-0.4 0,-0.22 -0.198,-0.4 -0.44,-0.4 -0.241,0 -0.943,-0.54 -1.56,-1.2 -0.617,-0.66 -1.409,-1.2 -1.76,-1.2 -0.352,0 -0.64,-0.27 -0.64,-0.6 0,-0.33 -0.23,-0.6 -0.512,-0.6 -0.281,0 -0.771,-0.36 -1.088,-0.8 -0.317,-0.44 -0.857,-0.8 -1.2,-0.8 -0.343,0 -0.883,-0.36 -1.2,-0.8 -0.317,-0.44 -0.987,-0.8 -1.488,-0.8 -0.502,0 -0.912,-0.193 -0.912,-0.429 0,-0.637 -1.053,-1.571 -1.771,-1.571 -0.346,0 -0.629,-0.18 -0.629,-0.4 0,-0.22 -0.41,-0.4 -0.912,-0.4 -0.501,0 -1.171,-0.36 -1.488,-0.8 -0.317,-0.44 -0.897,-0.8 -1.288,-0.8 -0.392,0 -0.712,-0.27 -0.712,-0.6 0,-0.373 -0.378,-0.6 -1,-0.6 -0.55,0 -1,-0.18 -1,-0.4 0,-0.22 -0.36,-0.4 -0.8,-0.4 -0.44,0 -0.8,-0.18 -0.8,-0.4 0,-0.22 -0.36,-0.4 -0.8,-0.4 -0.44,0 -0.8,-0.18 -0.8,-0.4 0,-0.22 -0.45,-0.4 -1,-0.4 -0.55,0 -1,-0.18 -1,-0.4 0,-0.22 -0.54,-0.4 -1.2,-0.4 -0.66,0 -1.2,-0.18 -1.2,-0.4 0,-0.22 -0.45,-0.4 -1,-0.4 -0.622,0 -1,-0.227 -1,-0.6 0,-0.4 -0.4,-0.6 -1.2,-0.6 -0.66,0 -1.2,-0.18 -1.2,-0.4 0,-0.22 -0.45,-0.4 -1,-0.4 -0.55,0 -1,-0.18 -1,-0.4 0,-0.22 -0.54,-0.4 -1.2,-0.4 -0.66,0 -1.2,-0.18 -1.2,-0.4 0,-0.22 -0.81,-0.4 -1.8,-0.4 -0.99,0 -1.8,-0.18 -1.8,-0.4 0,-0.22 -0.81,-0.4 -1.8,-0.4 -1.333,0 -1.8,-0.156 -1.8,-0.6 0,-0.444 -0.467,-0.6 -1.8,-0.6 -0.99,0 -1.8,-0.18 -1.8,-0.4 0,-0.22 -0.99,-0.4 -2.2,-0.4 -1.21,0 -2.2,-0.18 -2.2,-0.4 0,-0.235 -1.4,-0.4 -3.4,-0.4 -2,0 -3.4,-0.165 -3.4,-0.4 0,-0.258 -4.4,-0.4 -12.4,-0.4 -8,0 -12.4,0.142 -12.4,0.4 m 22.591,0.793 c 0.239,0.198 1.736,0.398 3.328,0.444 1.647,0.048 3.193,0.311 3.588,0.611 0.381,0.29 1.728,0.532 2.993,0.539 1.265,0.007 2.3,0.193 2.3,0.413 0,0.22 0.911,0.4 2.024,0.4 1.247,0 1.928,0.153 1.776,0.4 -0.149,0.241 0.388,0.4 1.353,0.4 0.88,0 1.711,0.18 1.847,0.4 0.136,0.22 0.867,0.4 1.624,0.4 0.757,0 1.376,0.16 1.376,0.355 0,0.195 0.495,0.451 1.1,0.57 1.755,0.344 4.1,1.244 4.1,1.573 0,0.166 0.54,0.302 1.2,0.302 0.66,0 1.2,0.18 1.2,0.4 0,0.22 0.349,0.4 0.776,0.4 0.427,0 0.888,0.18 1.024,0.4 0.136,0.22 0.597,0.4 1.024,0.4 0.427,0 0.776,0.18 0.776,0.4 0,0.22 0.255,0.4 0.568,0.4 0.713,0 3.026,1.298 3.029,1.7 0.002,0.165 0.352,0.3 0.779,0.3 0.427,0 0.888,0.18 1.024,0.4 0.136,0.22 0.597,0.4 1.024,0.4 0.427,0 0.776,0.18 0.776,0.4 0,0.22 0.244,0.4 0.542,0.4 0.297,0 0.982,0.405 1.521,0.9 0.539,0.495 1.465,1.155 2.058,1.468 0.594,0.312 1.079,0.717 1.079,0.9 0,0.182 0.36,0.332 0.8,0.332 0.44,0 0.8,0.141 0.8,0.314 0,0.172 0.585,0.655 1.3,1.071 0.715,0.417 1.57,1.042 1.9,1.389 0.33,0.347 1.093,0.885 1.697,1.195 0.603,0.309 1.706,1.208 2.451,1.997 0.745,0.789 1.782,1.776 2.303,2.195 2.466,1.977 6.184,5.283 6.489,5.77 0.429,0.684 4.952,5.968 6.133,7.166 1.184,1.2 3.327,4.341 3.327,4.875 0,0.235 0.18,0.428 0.4,0.428 0.22,0 0.4,0.193 0.4,0.428 0,0.236 0.791,1.541 1.757,2.9 4.046,5.693 8.448,14.921 10.911,22.872 0.34,1.1 0.766,2.36 0.945,2.8 0.18,0.44 0.438,1.34 0.575,2 0.136,0.66 0.429,1.92 0.65,2.8 2.57,10.217 2.488,8.31 2.643,61.961 0.157,54.221 0.29,50.7 -2.099,55.439 -5.508,10.927 -22.24,13.119 -31.143,4.08 -4.6,-4.67 -5.439,-7.303 -5.439,-17.062 0,-8.205 -0.017,-8.23 -3.188,-4.663 -7.164,8.06 -27.829,22.045 -32.577,22.045 -0.134,0 -1.007,0.339 -1.939,0.753 -0.933,0.414 -3.046,1.137 -4.696,1.608 -1.65,0.471 -3.54,1.024 -4.2,1.23 -13.295,4.145 -36.193,3.58 -51.4,-1.268 -7.433,-2.369 -18.564,-7.652 -22.04,-10.459 -0.588,-0.475 -2.751,-2.034 -4.806,-3.464 -6.338,-4.41 -18.233,-16.817 -21.403,-22.325 -0.467,-0.811 -2.097,-3.545 -3.622,-6.075 -1.524,-2.53 -3.191,-5.5 -3.704,-6.6 -4.862,-10.431 -7.574,-19.005 -9.173,-29 -0.229,-1.43 -0.614,-3.77 -0.857,-5.2 -0.691,-4.082 -0.965,-20.738 -0.421,-25.6 0.557,-4.973 1.02,-8.194 1.611,-11.2 0.238,-1.21 0.542,-2.969 0.677,-3.909 0.134,-0.94 0.4,-1.806 0.591,-1.924 0.191,-0.118 0.347,-0.645 0.347,-1.172 0,-0.526 0.162,-1.371 0.36,-1.876 0.198,-0.506 0.638,-1.819 0.978,-2.919 1.607,-5.208 2.479,-7.351 5.699,-14 1.933,-3.992 6.753,-11.881 7.414,-12.133 0.192,-0.074 0.349,-0.311 0.349,-0.528 0,-0.516 2.017,-3.437 3.462,-5.016 0.626,-0.684 1.408,-1.577 1.738,-1.986 1.67,-2.069 4.633,-5.562 4.873,-5.744 0.399,-0.303 8.345,-7.434 10.131,-9.093 0.297,-0.275 0.807,-0.5 1.134,-0.5 0.327,0 0.655,-0.152 0.729,-0.338 0.198,-0.503 4.157,-3.262 4.681,-3.262 0.248,0 0.452,-0.18 0.452,-0.4 0,-0.22 0.27,-0.4 0.6,-0.4 0.33,0 0.6,-0.18 0.6,-0.4 0,-0.22 0.276,-0.4 0.613,-0.4 0.336,0 0.714,-0.265 0.838,-0.588 0.124,-0.323 0.838,-0.809 1.587,-1.08 0.749,-0.271 1.362,-0.637 1.362,-0.812 0,-0.176 0.36,-0.32 0.8,-0.32 0.44,0 0.8,-0.18 0.8,-0.4 0,-0.22 0.36,-0.4 0.8,-0.4 0.44,0 0.8,-0.148 0.8,-0.33 0,-0.181 1.125,-0.824 2.5,-1.429 1.375,-0.604 2.813,-1.266 3.195,-1.47 0.382,-0.204 1.057,-0.371 1.5,-0.371 0.443,0 0.805,-0.18 0.805,-0.4 0,-0.22 0.45,-0.4 1,-0.4 0.55,0 1,-0.143 1,-0.317 0,-0.175 1.035,-0.658 2.3,-1.073 1.265,-0.416 2.48,-0.881 2.7,-1.033 0.415,-0.287 2.116,-0.664 4.703,-1.042 0.826,-0.121 1.602,-0.38 1.723,-0.577 0.122,-0.197 0.931,-0.358 1.798,-0.358 0.867,0 1.576,-0.18 1.576,-0.4 0,-0.225 1.122,-0.4 2.567,-0.4 1.53,0 2.626,-0.18 2.715,-0.445 0.087,-0.263 1.663,-0.532 3.844,-0.656 2.033,-0.116 3.788,-0.359 3.9,-0.541 0.277,-0.449 19.022,-0.416 19.565,0.035 M 131.6,186.037 c -2.31,0.141 -5.28,0.478 -6.6,0.747 -1.32,0.27 -3.12,0.627 -4,0.794 -0.88,0.167 -2.95,0.797 -4.6,1.401 -1.65,0.603 -3.357,1.202 -3.794,1.33 -1.89,0.556 -10.123,5.075 -12.006,6.591 -0.22,0.177 -1.477,1.143 -2.793,2.146 -7.842,5.976 -14.039,13.875 -18.752,23.899 -1.02,2.17 -1.855,4.108 -1.855,4.306 0,0.198 -0.164,0.672 -0.364,1.054 -0.767,1.461 -2.409,7.662 -3.043,11.489 -0.364,2.197 -0.744,4.127 -0.844,4.288 -0.509,0.824 -0.164,17.185 0.433,20.537 1.002,5.622 2.583,11.78 3.459,13.476 0.197,0.382 0.359,0.874 0.359,1.094 0,0.83 4.392,9.598 5.766,11.51 0.789,1.098 1.434,2.2 1.434,2.449 0,0.248 0.168,0.452 0.373,0.452 0.205,0 0.479,0.315 0.609,0.7 0.13,0.385 0.965,1.51 1.857,2.5 0.891,0.99 2.192,2.499 2.89,3.353 1.688,2.063 2.643,3.009 4.486,4.447 0.846,0.66 1.946,1.605 2.443,2.1 0.498,0.495 1.094,0.9 1.324,0.9 0.23,0 0.418,0.18 0.418,0.4 0,0.22 0.27,0.4 0.6,0.4 0.33,0 0.6,0.18 0.6,0.4 0,0.22 0.27,0.4 0.6,0.4 0.33,0 0.6,0.18 0.6,0.4 0,0.22 0.227,0.4 0.504,0.4 0.277,0 0.961,0.405 1.52,0.9 1.322,1.172 2.614,1.9 3.371,1.9 0.333,0 0.605,0.18 0.605,0.4 0,0.22 0.253,0.4 0.563,0.4 0.31,0 1.73,0.63 3.156,1.4 1.425,0.77 2.972,1.4 3.436,1.4 0.465,0 0.845,0.18 0.845,0.4 0,0.22 0.529,0.4 1.176,0.4 0.647,0 1.288,0.18 1.424,0.4 0.136,0.22 0.676,0.4 1.2,0.4 0.524,0 1.064,0.18 1.2,0.4 0.136,0.22 1.101,0.4 2.144,0.4 1.043,0 2.068,0.172 2.279,0.383 0.21,0.21 1.853,0.461 3.649,0.557 1.797,0.096 3.452,0.29 3.679,0.43 0.604,0.373 8.934,0.329 9.212,-0.049 0.131,-0.177 1.758,-0.366 3.618,-0.422 1.86,-0.056 3.561,-0.281 3.78,-0.5 0.219,-0.219 1.252,-0.399 2.295,-0.399 1.043,0 2.008,-0.18 2.144,-0.4 0.136,-0.22 0.766,-0.4 1.4,-0.4 0.634,0 1.264,-0.18 1.4,-0.4 0.136,-0.22 0.599,-0.4 1.029,-0.4 0.43,0 1.094,-0.167 1.476,-0.371 0.382,-0.205 1.549,-0.7 2.594,-1.1 1.044,-0.401 1.899,-0.864 1.9,-1.029 0,-0.165 0.236,-0.3 0.524,-0.3 0.713,0 5.779,-2.574 6.835,-3.473 0.469,-0.4 1.343,-0.981 1.941,-1.291 0.598,-0.31 1.443,-0.895 1.878,-1.3 0.434,-0.405 0.932,-0.74 1.106,-0.746 0.174,-0.005 1.421,-1.04 2.771,-2.3 1.35,-1.259 2.79,-2.573 3.2,-2.919 1.709,-1.442 7.346,-8.397 7.346,-9.064 0,-0.279 0.18,-0.507 0.4,-0.507 0.22,0 0.4,-0.201 0.4,-0.446 0,-0.246 0.592,-1.281 1.316,-2.3 1.379,-1.943 1.435,-2.048 3.607,-6.854 8.369,-18.518 8.226,-42.463 -0.363,-60.745 -0.968,-2.06 -1.76,-3.796 -1.76,-3.857 0,-0.357 -4.663,-7.46 -5.776,-8.798 -0.731,-0.88 -1.936,-2.325 -2.677,-3.211 -5.837,-6.983 -15.683,-13.636 -25.347,-17.127 -8.283,-2.992 -16.463,-4.046 -26.6,-3.425 M 146,200.8 c 0,0.22 0.99,0.4 2.2,0.4 1.21,0 2.2,0.18 2.2,0.4 0,0.22 0.81,0.4 1.8,0.4 1.333,0 1.8,0.156 1.8,0.6 0,0.4 0.4,0.6 1.2,0.6 0.66,0 1.2,0.18 1.2,0.4 0,0.22 0.45,0.4 1,0.4 0.55,0 1,0.18 1,0.4 0,0.22 0.36,0.4 0.8,0.4 0.44,0 0.8,0.18 0.8,0.4 0,0.22 0.45,0.4 1,0.4 0.55,0 1,0.18 1,0.4 0,0.22 0.36,0.4 0.8,0.4 0.444,0 0.8,0.267 0.8,0.6 0,0.333 0.356,0.6 0.8,0.6 0.44,0 0.8,0.18 0.8,0.4 0,0.22 0.378,0.4 0.84,0.4 0.461,0 1.343,0.54 1.96,1.2 0.617,0.66 1.499,1.2 1.96,1.2 0.462,0 0.84,0.186 0.84,0.413 0,0.645 2.701,3.187 3.387,3.187 0.387,0 0.613,0.368 0.613,1 0,0.55 0.185,1 0.411,1 0.534,0 3.989,3.455 3.989,3.989 0,0.226 0.27,0.411 0.6,0.411 0.33,0 0.6,0.288 0.6,0.64 0,0.351 0.54,1.143 1.2,1.76 0.66,0.617 1.2,1.499 1.2,1.96 0,0.462 0.18,0.84 0.4,0.84 0.22,0 0.4,0.36 0.4,0.8 0,0.444 0.267,0.8 0.6,0.8 0.333,0 0.6,0.356 0.6,0.8 0,0.44 0.18,0.8 0.4,0.8 0.22,0 0.4,0.27 0.4,0.6 0,0.33 0.18,0.6 0.4,0.6 0.22,0 0.4,0.54 0.4,1.2 0,0.66 0.18,1.2 0.4,1.2 0.22,0 0.4,0.45 0.4,1 0,0.55 0.18,1 0.4,1 0.22,0 0.4,0.54 0.4,1.2 0,0.8 0.2,1.2 0.6,1.2 0.373,0 0.6,0.378 0.6,1 0,0.55 0.18,1 0.4,1 0.22,0 0.4,0.72 0.4,1.6 0,0.88 0.18,1.6 0.4,1.6 0.22,0 0.4,0.99 0.4,2.2 0,1.21 0.18,2.2 0.4,2.2 0.237,0 0.4,1.467 0.4,3.6 0,2.133 0.163,3.6 0.4,3.6 0.249,0 0.4,2.267 0.4,6 0,3.733 -0.151,6 -0.4,6 -0.237,0 -0.4,1.467 -0.4,3.6 0,2.133 -0.163,3.6 -0.4,3.6 -0.22,0 -0.4,0.81 -0.4,1.8 0,0.99 -0.18,1.8 -0.4,1.8 -0.22,0 -0.4,0.72 -0.4,1.6 0,0.88 -0.18,1.6 -0.4,1.6 -0.22,0 -0.4,0.63 -0.4,1.4 0,0.978 -0.181,1.4 -0.6,1.4 -0.419,0 -0.6,0.422 -0.6,1.4 0,0.77 -0.18,1.4 -0.4,1.4 -0.22,0 -0.4,0.36 -0.4,0.8 0,0.44 -0.18,0.8 -0.4,0.8 -0.22,0 -0.4,0.36 -0.4,0.8 0,0.44 -0.18,0.8 -0.4,0.8 -0.22,0 -0.4,0.373 -0.4,0.829 0,0.885 -0.866,1.971 -1.571,1.971 -0.236,0 -0.429,0.36 -0.429,0.8 0,0.44 -0.18,0.8 -0.4,0.8 -0.22,0 -0.4,0.41 -0.4,0.912 0,0.501 -0.36,1.171 -0.8,1.488 -0.44,0.317 -0.8,0.82 -0.8,1.117 0,0.645 -0.969,1.683 -1.571,1.683 -0.236,0 -0.429,0.23 -0.429,0.512 0,0.281 -0.36,0.771 -0.8,1.088 -0.44,0.317 -0.8,0.857 -0.8,1.2 0,0.343 -0.36,0.883 -0.8,1.2 -0.44,0.317 -0.8,0.807 -0.8,1.088 0,0.282 -0.23,0.512 -0.512,0.512 -0.281,0 -0.771,0.36 -1.088,0.8 -0.317,0.44 -0.815,0.8 -1.106,0.8 -0.629,0 -2.494,1.782 -2.494,2.382 0,0.23 -0.27,0.418 -0.6,0.418 -0.33,0 -0.6,0.18 -0.6,0.4 0,0.22 -0.32,0.4 -0.712,0.4 -0.391,0 -0.971,0.36 -1.288,0.8 -0.317,0.44 -0.987,0.8 -1.488,0.8 -0.502,0 -0.912,0.18 -0.912,0.4 0,0.22 -0.36,0.4 -0.8,0.4 -0.44,0 -0.8,0.193 -0.8,0.429 0,0.705 -1.086,1.571 -1.971,1.571 -0.456,0 -0.829,0.18 -0.829,0.4 0,0.22 -0.54,0.4 -1.2,0.4 -0.66,0 -1.2,0.18 -1.2,0.4 0,0.22 -0.45,0.4 -1,0.4 -0.55,0 -1,0.18 -1,0.4 0,0.22 -0.54,0.4 -1.2,0.4 -0.8,0 -1.2,0.2 -1.2,0.6 0,0.444 -0.467,0.6 -1.8,0.6 -0.99,0 -1.8,0.18 -1.8,0.4 0,0.22 -0.99,0.4 -2.2,0.4 -1.21,0 -2.2,0.18 -2.2,0.4 0,0.256 -3.467,0.4 -9.6,0.4 -6.133,0 -9.6,-0.144 -9.6,-0.4 0,-0.22 -0.99,-0.4 -2.2,-0.4 -1.21,0 -2.2,-0.18 -2.2,-0.4 0,-0.22 -0.81,-0.4 -1.8,-0.4 -1.333,0 -1.8,-0.156 -1.8,-0.6 0,-0.333 -0.356,-0.6 -0.8,-0.6 -0.44,0 -0.8,-0.18 -0.8,-0.4 0,-0.22 -0.63,-0.4 -1.4,-0.4 -0.77,0 -1.4,-0.18 -1.4,-0.4 0,-0.22 -0.36,-0.4 -0.8,-0.4 -0.44,0 -0.8,-0.18 -0.8,-0.4 0,-0.22 -0.36,-0.4 -0.8,-0.4 -0.44,0 -0.8,-0.18 -0.8,-0.4 0,-0.22 -0.45,-0.4 -1,-0.4 -0.622,0 -1,-0.227 -1,-0.6 0,-0.33 -0.32,-0.6 -0.712,-0.6 -0.391,0 -0.971,-0.36 -1.288,-0.8 -0.317,-0.44 -0.905,-0.8 -1.306,-0.8 -0.783,0 -2.694,-1.69 -2.694,-2.382 0,-0.23 -0.365,-0.418 -0.811,-0.418 -0.824,0 -4.389,-3.24 -4.389,-3.989 0,-0.226 -0.185,-0.411 -0.411,-0.411 -0.749,0 -3.989,-3.565 -3.989,-4.389 0,-0.446 -0.188,-0.811 -0.418,-0.811 -0.642,0 -2.382,-1.886 -2.382,-2.582 0,-0.34 -0.18,-0.618 -0.4,-0.618 -0.22,0 -0.4,-0.27 -0.4,-0.6 0,-0.33 -0.18,-0.6 -0.4,-0.6 -0.22,0 -0.4,-0.36 -0.4,-0.8 0,-0.44 -0.18,-0.8 -0.4,-0.8 -0.22,0 -0.4,-0.36 -0.4,-0.8 0,-0.444 -0.267,-0.8 -0.6,-0.8 -0.373,0 -0.6,-0.378 -0.6,-1 0,-0.55 -0.18,-1 -0.4,-1 -0.22,0 -0.4,-0.36 -0.4,-0.8 0,-0.44 -0.18,-0.8 -0.4,-0.8 -0.22,0 -0.4,-0.45 -0.4,-1 0,-0.55 -0.18,-1 -0.4,-1 -0.22,0 -0.4,-0.54 -0.4,-1.2 0,-0.66 -0.18,-1.2 -0.4,-1.2 -0.22,0 -0.4,-0.63 -0.4,-1.4 0,-0.978 -0.181,-1.4 -0.6,-1.4 -0.4,0 -0.6,-0.4 -0.6,-1.2 0,-0.66 -0.18,-1.2 -0.4,-1.2 -0.22,0 -0.4,-0.99 -0.4,-2.2 0,-1.21 -0.18,-2.2 -0.4,-2.2 -0.237,0 -0.4,-1.467 -0.4,-3.6 0,-2.133 -0.163,-3.6 -0.4,-3.6 -0.246,0 -0.4,-2 -0.4,-5.2 0,-3.2 0.154,-5.2 0.4,-5.2 0.24,0 0.4,-1.6 0.4,-4 0,-2.4 0.16,-4 0.4,-4 0.22,0 0.4,-0.72 0.4,-1.6 0,-0.88 0.18,-1.6 0.4,-1.6 0.22,0 0.4,-0.81 0.4,-1.8 0,-1.333 0.156,-1.8 0.6,-1.8 0.419,0 0.6,-0.422 0.6,-1.4 0,-0.77 0.18,-1.4 0.4,-1.4 0.22,0 0.4,-0.54 0.4,-1.2 0,-0.66 0.18,-1.2 0.4,-1.2 0.22,0 0.4,-0.45 0.4,-1 0,-0.55 0.18,-1 0.4,-1 0.22,0 0.4,-0.36 0.4,-0.8 0,-0.44 0.18,-0.8 0.4,-0.8 0.22,0 0.4,-0.45 0.4,-1 0,-0.622 0.227,-1 0.6,-1 0.33,0 0.6,-0.32 0.6,-0.712 0,-0.391 0.36,-0.971 0.8,-1.288 0.44,-0.317 0.8,-0.947 0.8,-1.4 0,-0.453 0.36,-1.083 0.8,-1.4 0.44,-0.317 0.8,-0.82 0.8,-1.117 0,-0.645 0.969,-1.683 1.571,-1.683 0.236,0 0.429,-0.365 0.429,-0.811 0,-0.824 3.24,-4.389 3.989,-4.389 0.226,0 0.411,-0.185 0.411,-0.411 0,-0.749 3.565,-3.989 4.389,-3.989 0.446,0 0.811,-0.188 0.811,-0.418 0,-0.692 1.911,-2.382 2.694,-2.382 0.401,0 0.989,-0.36 1.306,-0.8 0.317,-0.44 0.897,-0.8 1.288,-0.8 0.392,0 0.712,-0.27 0.712,-0.6 0,-0.373 0.378,-0.6 1,-0.6 0.55,0 1,-0.18 1,-0.4 0,-0.22 0.36,-0.4 0.8,-0.4 0.44,0 0.8,-0.18 0.8,-0.4 0,-0.22 0.36,-0.4 0.8,-0.4 0.44,0 0.8,-0.18 0.8,-0.4 0,-0.22 0.63,-0.4 1.4,-0.4 0.77,0 1.4,-0.18 1.4,-0.4 0,-0.22 0.54,-0.4 1.2,-0.4 0.8,0 1.2,-0.2 1.2,-0.6 0,-0.419 0.422,-0.6 1.4,-0.6 0.77,0 1.4,-0.18 1.4,-0.4 0,-0.22 0.99,-0.4 2.2,-0.4 1.21,0 2.2,-0.18 2.2,-0.4 0,-0.256 3.467,-0.4 9.6,-0.4 6.133,0 9.6,0.144 9.6,0.4 m 210.476,14.595 c -0.948,0.501 -2.118,1.257 -2.6,1.68 -0.482,0.423 -1.776,1.184 -2.876,1.691 -1.1,0.507 -2.313,1.082 -2.695,1.278 -0.382,0.196 -1.035,0.356 -1.451,0.356 -0.416,0 -0.98,0.27 -1.254,0.6 -0.421,0.507 -0.336,0.6 0.551,0.6 0.577,0 1.049,-0.18 1.049,-0.4 0,-0.22 0.63,-0.4 1.4,-0.4 0.77,0 1.4,-0.177 1.4,-0.392 0,-0.216 0.495,-0.513 1.1,-0.661 1.128,-0.275 4.594,-2.444 4.833,-3.024 0.074,-0.178 0.459,-0.323 0.858,-0.323 0.398,0 0.827,-0.27 0.954,-0.6 0.126,-0.33 0.495,-0.6 0.819,-0.6 0.324,0 0.7,-0.18 0.836,-0.4 0.417,-0.675 -1.107,-0.365 -2.924,0.595 M 332.4,222.04 c 0,0.482 11.088,0.464 11.386,-0.018 0.143,-0.231 -2.027,-0.371 -5.576,-0.36 -3.196,0.01 -5.81,0.18 -5.81,0.378"
       id="path1" />
    <path
       style="fill:#e4e4e4;fill-rule:evenodd;stroke:none"
       d="m 333.58,138.138 c -0.12,0.129 -1.349,0.279 -2.729,0.334 -1.38,0.054 -2.597,0.24 -2.704,0.413 -0.107,0.173 -0.743,0.315 -1.413,0.315 -1.669,0 -6.734,1.253 -6.734,1.665 0,0.184 -0.369,0.335 -0.819,0.335 -0.451,0 -1.565,0.36 -2.475,0.8 -0.911,0.44 -1.877,0.8 -2.148,0.8 -0.27,0 -0.551,0.135 -0.625,0.3 -0.073,0.165 -1.18,0.839 -2.46,1.499 -1.281,0.659 -2.613,1.514 -2.962,1.9 -0.349,0.385 -0.845,0.701 -1.102,0.701 -1.43,0 -9.147,8.088 -11.975,12.552 -1.836,2.898 -4.738,9.027 -5.419,11.448 -0.278,0.99 -0.644,2.16 -0.812,2.6 -0.501,1.314 -1.167,4.689 -1.263,6.4 -0.049,0.88 -0.247,1.812 -0.44,2.072 -0.714,0.959 0.137,18.671 0.937,19.508 0.2,0.209 0.369,0.929 0.376,1.6 0.007,0.671 0.277,1.569 0.6,1.996 0.323,0.428 0.587,1.182 0.587,1.677 0,0.495 0.18,1.011 0.4,1.147 0.22,0.136 0.4,0.591 0.4,1.011 0,0.421 0.36,1.406 0.8,2.189 0.44,0.783 0.8,1.689 0.8,2.012 0,0.323 0.18,0.588 0.4,0.588 0.22,0 0.4,0.27 0.4,0.599 0,0.33 0.63,1.476 1.4,2.548 0.77,1.072 1.4,2.152 1.4,2.401 0,0.248 0.18,0.452 0.4,0.452 0.22,0 0.4,0.253 0.4,0.561 0,0.566 8.857,9.839 9.398,9.839 0.16,0 1.449,0.81 2.865,1.8 1.417,0.99 2.747,1.8 2.956,1.8 0.21,0 0.381,0.18 0.381,0.4 0,0.22 0.245,0.4 0.544,0.4 0.299,0 1.604,0.525 2.9,1.168 1.296,0.642 3.481,1.486 4.856,1.875 1.375,0.39 2.5,0.854 2.5,1.033 0,0.178 0.9,0.324 2,0.324 1.1,0 2,0.168 2,0.373 0,0.204 1.665,0.473 3.7,0.596 2.035,0.123 5.388,0.329 7.45,0.457 2.444,0.152 3.9,0.084 4.18,-0.196 0.237,-0.237 1.643,-0.43 3.126,-0.43 1.483,0 2.808,-0.18 2.944,-0.4 0.136,-0.22 1.047,-0.4 2.024,-0.4 0.977,0 1.776,-0.166 1.776,-0.368 0,-0.203 0.585,-0.495 1.3,-0.65 1.206,-0.261 3.968,-1.354 5.595,-2.215 0.382,-0.202 0.967,-0.367 1.3,-0.367 0.333,0 0.605,-0.18 0.605,-0.4 0,-0.22 0.36,-0.4 0.8,-0.4 0.44,0 0.8,-0.18 0.8,-0.4 0,-0.22 0.227,-0.4 0.504,-0.4 0.277,0 0.952,-0.413 1.5,-0.917 0.548,-0.504 1.896,-1.531 2.996,-2.281 5.98,-4.078 6.892,-9.303 2.515,-14.402 -2.24,-2.609 -8.498,-3.05 -10.941,-0.77 -0.454,0.423 -1.025,0.77 -1.269,0.77 -0.244,0 -1.223,0.59 -2.174,1.31 -2.286,1.731 -7.025,4.007 -8.531,4.098 -0.66,0.04 -1.954,0.284 -2.875,0.541 -2.089,0.584 -12.309,0.364 -15.125,-0.326 -2.349,-0.575 -3.012,-0.82 -5.338,-1.966 -0.956,-0.471 -1.913,-0.857 -2.128,-0.857 -3.793,0 -13.165,-11.971 -14.719,-18.8 -0.275,-1.21 -0.661,-2.513 -0.858,-2.895 -0.504,-0.98 -0.464,-15.905 0.043,-15.905 0.22,0 0.4,-0.709 0.4,-1.576 0,-0.867 0.18,-1.688 0.4,-1.824 0.22,-0.136 0.4,-0.741 0.4,-1.344 0,-0.603 0.151,-1.267 0.336,-1.476 0.185,-0.209 0.576,-1.01 0.87,-1.78 2.556,-6.704 12.751,-16 17.547,-16 0.598,0 1.258,-0.162 1.467,-0.359 0.925,-0.874 13.545,-1.636 14.316,-0.865 0.233,0.233 1.097,0.424 1.92,0.424 0.823,0 1.608,0.18 1.744,0.4 0.136,0.22 0.76,0.4 1.386,0.4 1.001,0 4.268,1.384 4.814,2.04 0.11,0.132 0.413,0.312 0.673,0.4 0.518,0.175 2.953,2.194 6.572,5.448 1.278,1.149 2.825,2.201 3.439,2.339 0.614,0.138 1.656,0.375 2.316,0.528 2.063,0.477 7.8,-1.792 7.8,-3.085 0,-0.176 0.373,-0.719 0.829,-1.209 1.259,-1.352 1.246,-6.246 -0.023,-8.116 -1.721,-2.536 -11.178,-11.145 -12.243,-11.145 -0.126,0 -1.339,-0.659 -2.696,-1.464 -1.357,-0.805 -2.778,-1.447 -3.159,-1.426 -0.381,0.022 -0.796,-0.129 -0.924,-0.335 -0.127,-0.206 -0.566,-0.375 -0.974,-0.375 -0.409,0 -0.808,-0.194 -0.887,-0.432 -0.079,-0.237 -0.859,-0.518 -1.734,-0.622 -0.874,-0.105 -1.859,-0.292 -2.189,-0.416 -0.33,-0.123 -1.225,-0.302 -1.988,-0.396 -0.764,-0.095 -1.484,-0.299 -1.6,-0.453 -0.235,-0.312 -0.314,-0.32 -6.812,-0.705 -2.53,-0.15 -4.699,-0.167 -4.82,-0.038 m 14.228,3.048 c 1.976,0.466 3.905,1.019 4.287,1.23 0.382,0.211 0.894,0.384 1.139,0.384 3.478,0 16.69,9.829 19.625,14.6 1.335,2.171 0.71,5.788 -1.324,7.661 -4.172,3.842 -7.713,3.31 -13.586,-2.042 -1.842,-1.679 -3.889,-3.339 -4.549,-3.689 -5.797,-3.081 -7.629,-3.683 -12.6,-4.141 -9.72,-0.896 -18.995,1.759 -25.059,7.173 -2.06,1.84 -6.941,7.969 -6.941,8.718 0,0.218 -0.25,0.92 -0.556,1.559 -2.116,4.417 -2.831,7.249 -3.434,13.603 -1.465,15.455 5.926,29.687 18.39,35.411 2.068,0.95 2.981,1.249 7.046,2.315 0.906,0.238 4.395,0.432 7.754,0.432 3.359,0 6.848,-0.194 7.754,-0.432 5.282,-1.385 7.45,-2.326 11.159,-4.844 6.699,-4.55 11.771,-4.048 14.506,1.434 2.998,6.011 -8.238,14.72 -23.419,18.153 -6.033,1.364 -20.925,0.585 -25.521,-1.336 -0.757,-0.316 -1.633,-0.575 -1.947,-0.575 -1.151,0 -8.236,-3.627 -11.635,-5.956 -17.208,-11.792 -24.679,-34.602 -18.518,-56.544 0.231,-0.825 0.573,-2.085 0.759,-2.8 1.232,-4.745 6.298,-12.881 10.933,-17.558 11.387,-11.49 29.575,-16.563 45.737,-12.756 m -213.052,9.791 c -0.086,0.086 -2.856,0.282 -6.156,0.435 -3.3,0.154 -6.131,0.357 -6.29,0.451 -0.16,0.095 -1.78,0.426 -3.6,0.736 -4.346,0.739 -5.593,0.982 -6.276,1.225 -0.311,0.111 -1.211,0.304 -2,0.429 -0.788,0.125 -1.737,0.389 -2.108,0.587 -0.37,0.198 -1.099,0.36 -1.62,0.36 -0.52,0 -1.117,0.169 -1.326,0.375 -0.209,0.207 -0.83,0.444 -1.38,0.529 -0.55,0.084 -1.697,0.455 -2.549,0.824 -0.852,0.37 -1.692,0.672 -1.867,0.672 -0.176,0 -0.829,0.259 -1.452,0.574 -0.622,0.316 -2.212,1.048 -3.532,1.625 -4.702,2.058 -7.795,3.605 -7.798,3.901 -0.001,0.165 -0.204,0.3 -0.45,0.3 -0.523,0 -3.347,1.72 -5.419,3.3 -0.794,0.605 -1.606,1.1 -1.805,1.1 -0.199,0 -0.748,0.36 -1.22,0.8 -0.472,0.44 -1.095,0.8 -1.383,0.8 -0.289,0 -0.525,0.144 -0.525,0.32 0,0.176 -0.819,0.838 -1.819,1.471 -1.001,0.632 -1.946,1.36 -2.1,1.616 -0.155,0.257 -1.541,1.549 -3.081,2.872 -4.561,3.918 -6.215,5.623 -10.2,10.516 -0.99,1.216 -2.196,2.659 -2.68,3.208 -2.721,3.084 -10.763,16.831 -12.634,21.597 -0.216,0.55 -0.535,1.36 -0.707,1.8 -0.663,1.686 -2.335,6.47 -2.795,8 -0.265,0.88 -0.64,1.913 -0.833,2.295 -0.193,0.382 -0.351,1.158 -0.351,1.726 0,0.567 -0.16,1.335 -0.355,1.705 -0.196,0.371 -0.478,1.484 -0.627,2.474 -0.324,2.141 -0.896,5.726 -1.182,7.4 -1.508,8.84 -1.37,31.244 0.212,34.274 0.194,0.37 0.352,1.665 0.352,2.876 0,1.212 0.18,2.314 0.4,2.45 0.22,0.136 0.4,1.036 0.4,2 0,0.964 0.18,1.864 0.4,2 0.22,0.136 0.4,0.856 0.4,1.6 0,0.744 0.166,1.455 0.369,1.581 0.203,0.125 0.488,0.811 0.633,1.524 0.355,1.746 1.019,3.942 1.447,4.79 0.193,0.382 0.351,0.969 0.351,1.305 0,0.336 0.159,0.923 0.353,1.305 0.195,0.382 0.536,1.145 0.76,1.695 0.842,2.074 1.823,4.277 2.936,6.594 0.633,1.317 1.151,2.528 1.151,2.692 0,0.164 0.63,1.283 1.4,2.487 0.77,1.204 1.4,2.377 1.4,2.608 0,0.23 0.18,0.419 0.4,0.419 0.22,0 0.4,0.27 0.4,0.6 0,0.33 0.18,0.6 0.4,0.6 0.22,0 0.4,0.36 0.4,0.8 0,0.44 0.18,0.8 0.4,0.8 0.22,0 0.4,0.184 0.4,0.409 0,0.633 2.446,4.275 3.9,5.807 0.275,0.29 0.5,0.705 0.5,0.922 0,0.217 0.16,0.455 0.356,0.529 0.392,0.147 4.044,4.557 4.044,4.884 0,0.112 1.464,1.609 3.253,3.327 1.789,1.717 4.084,3.939 5.1,4.938 1.016,0.999 3.647,3.059 5.847,4.578 2.2,1.519 4.06,2.906 4.133,3.084 0.074,0.177 0.32,0.322 0.547,0.322 0.227,0 1.247,0.603 2.266,1.339 1.02,0.736 2.439,1.59 3.154,1.898 0.715,0.307 1.3,0.694 1.3,0.861 0,0.166 0.246,0.302 0.547,0.302 0.301,0 1.778,0.63 3.281,1.4 1.504,0.77 2.967,1.4 3.253,1.4 0.285,0 0.519,0.18 0.519,0.4 0,0.22 0.362,0.4 0.805,0.4 0.443,0 1.163,0.18 1.6,0.4 0.437,0.22 1.153,0.58 1.59,0.8 0.437,0.22 1.159,0.4 1.605,0.4 0.446,0 1.123,0.158 1.505,0.351 0.971,0.49 3.218,1.151 4.999,1.47 0.828,0.148 1.603,0.429 1.724,0.624 0.121,0.195 1.008,0.355 1.972,0.355 0.964,0 1.864,0.18 2,0.4 0.136,0.22 1.396,0.4 2.8,0.4 1.404,0 2.664,0.18 2.8,0.4 0.156,0.252 4.53,0.4 11.8,0.4 7.27,0 11.644,-0.148 11.8,-0.4 0.136,-0.22 1.306,-0.4 2.6,-0.4 1.294,0 2.464,-0.18 2.6,-0.4 0.136,-0.22 1.227,-0.4 2.424,-0.4 1.197,0 2.176,-0.165 2.176,-0.368 0,-0.356 2.445,-1.08 5.104,-1.51 0.717,-0.116 1.402,-0.371 1.523,-0.566 0.121,-0.196 0.662,-0.356 1.202,-0.356 0.54,0 1.294,-0.159 1.676,-0.353 0.382,-0.195 1.145,-0.54 1.695,-0.767 3.782,-1.563 5.938,-2.561 9.993,-4.624 2.534,-1.29 5.085,-2.685 5.669,-3.1 0.584,-0.416 1.193,-0.756 1.353,-0.756 0.16,0 0.582,-0.316 0.938,-0.703 0.356,-0.386 1.118,-0.944 1.693,-1.238 0.575,-0.295 1.512,-0.969 2.082,-1.497 0.57,-0.529 1.18,-0.964 1.355,-0.966 0.174,-0.003 1.151,-0.768 2.169,-1.7 1.019,-0.933 2.709,-2.416 3.755,-3.296 1.046,-0.88 2.192,-1.936 2.547,-2.346 5.894,-6.81 6.023,-6.781 6.061,1.346 0.04,8.5 0.901,12.368 3.562,15.994 1.142,1.558 3.476,4.006 3.818,4.006 0.351,0 3.59,2.167 3.738,2.5 0.074,0.165 0.828,0.3 1.677,0.3 0.848,0 1.654,0.18 1.79,0.4 0.139,0.225 2.063,0.4 4.4,0.4 2.337,0 4.261,-0.175 4.4,-0.4 0.136,-0.22 0.845,-0.4 1.575,-0.4 0.73,0 1.535,-0.251 1.789,-0.557 0.255,-0.306 1.042,-0.796 1.749,-1.088 2.331,-0.963 6.687,-5.236 6.687,-6.56 0,-0.327 0.136,-0.595 0.302,-0.595 0.388,0 1.062,-1.611 1.853,-4.428 0.725,-2.583 0.987,-93.275 0.277,-95.972 -0.203,-0.77 -0.466,-2.66 -0.585,-4.2 -0.341,-4.412 -1.177,-9.112 -2.282,-12.828 -0.201,-0.676 -0.365,-1.61 -0.365,-2.077 0,-0.466 -0.18,-0.959 -0.4,-1.095 -0.22,-0.136 -0.4,-0.747 -0.4,-1.357 0,-0.61 -0.122,-1.232 -0.271,-1.381 -0.242,-0.242 -1.558,-3.776 -2.521,-6.769 -0.932,-2.897 -5.657,-12.192 -7.771,-15.29 -0.901,-1.318 -1.727,-2.578 -1.837,-2.8 -0.702,-1.415 -4.407,-6.591 -5.962,-8.329 -1.021,-1.141 -2.894,-3.363 -4.164,-4.939 -1.269,-1.576 -2.786,-3.178 -3.37,-3.561 -0.585,-0.383 -1.447,-1.074 -1.916,-1.535 -1.953,-1.921 -6.739,-6.082 -7.629,-6.632 -0.528,-0.326 -0.959,-0.731 -0.959,-0.9 0,-0.169 -0.193,-0.307 -0.428,-0.307 -0.45,0 -3.797,-2.194 -4.701,-3.081 -0.29,-0.285 -0.729,-0.519 -0.974,-0.519 -0.245,0 -0.817,-0.342 -1.271,-0.761 -1.711,-1.576 -13.281,-7.313 -17.026,-8.441 -0.99,-0.298 -1.98,-0.662 -2.2,-0.808 -0.22,-0.146 -1.3,-0.49 -2.4,-0.765 -1.1,-0.275 -2.36,-0.648 -2.8,-0.83 -0.44,-0.182 -1.505,-0.429 -2.368,-0.549 -0.862,-0.12 -1.672,-0.359 -1.8,-0.532 -0.127,-0.173 -0.85,-0.364 -1.605,-0.425 -0.755,-0.062 -1.565,-0.253 -1.8,-0.426 -0.235,-0.172 -1.579,-0.355 -2.987,-0.406 -1.408,-0.051 -2.865,-0.256 -3.236,-0.455 -0.372,-0.199 -1.02,-0.345 -1.44,-0.324 -0.42,0.021 -2.564,-0.087 -4.764,-0.239 -7.001,-0.483 -10.084,-0.622 -10.244,-0.462 m 11.444,2.243 c 10.512,1.124 22.284,3.888 28.8,6.763 14.034,6.193 27.758,15.927 35.734,25.348 1.522,1.798 3.168,3.719 3.657,4.269 1.585,1.782 8.474,12.011 9.793,14.541 0.706,1.352 1.476,2.819 1.711,3.259 4.272,7.981 7.779,19.541 9.77,32.2 0.797,5.067 0.786,99.158 -0.012,101.2 -1.181,3.022 -1.719,4.011 -3.209,5.897 -7.487,9.471 -24.086,7.877 -29.514,-2.834 -1.784,-3.522 -1.895,-4.227 -2.115,-13.458 -0.26,-10.885 -0.115,-10.72 -4.854,-5.503 -5.104,5.619 -17.999,16.298 -19.68,16.298 -0.098,0 -1.867,0.954 -3.93,2.119 -4.145,2.342 -13.508,6.22 -17.551,7.27 -4.739,1.23 -5.773,1.467 -9,2.058 -17.737,3.252 -38.166,0.835 -54,-6.386 -3.975,-1.813 -10.819,-5.573 -11.862,-6.517 -0.367,-0.332 -2.367,-1.806 -4.445,-3.274 -4.173,-2.95 -11.99,-10.088 -13.837,-12.636 -0.651,-0.899 -1.515,-1.996 -1.92,-2.438 -2.396,-2.617 -6.041,-7.836 -9.177,-13.14 -2.714,-4.591 -7.391,-14.903 -8.55,-18.856 -6.439,-21.943 -7.21,-41.817 -2.407,-62.044 0.465,-1.956 0.989,-3.916 1.166,-4.356 0.177,-0.44 0.54,-1.52 0.807,-2.4 9.428,-31.076 37.664,-57.215 70.025,-64.824 5.882,-1.383 5.986,-1.4 15,-2.52 4.1,-0.509 14.989,-0.529 19.6,-0.036 M 132,184.4 c -24.907,1.459 -44.914,16.242 -56.034,41.4 -0.972,2.198 -3.106,9.551 -3.541,12.2 -0.271,1.65 -0.689,3.9 -0.929,5 -0.573,2.634 -0.566,19.015 0.01,21.6 0.245,1.1 0.664,3.26 0.931,4.8 1.388,8.022 8.99,25.121 12.359,27.8 0.138,0.11 1.436,1.64 2.884,3.4 5.937,7.218 17.618,15.369 25.834,18.03 1.037,0.335 2.246,0.761 2.686,0.945 7.88,3.292 23.284,4.01 34.737,1.618 18.393,-3.841 36.079,-17.651 43.532,-33.993 0.451,-0.99 1.271,-2.79 1.821,-4 1.981,-4.359 3.731,-10.543 4.979,-17.6 0.722,-4.083 0.714,-19.591 -0.013,-23.6 -1.906,-10.519 -3.293,-14.857 -7.42,-23.2 C 182.725,196.334 158.483,182.848 132,184.4 m 5.4,0.8 c 0.142,0.23 2.263,0.4 5,0.4 2.737,0 4.858,0.17 5,0.4 0.136,0.22 0.774,0.4 1.418,0.4 1.558,0 4.708,0.741 6.114,1.438 0.623,0.309 1.468,0.562 1.877,0.562 0.409,0 0.855,0.18 0.991,0.4 0.136,0.22 0.676,0.4 1.2,0.4 0.524,0 1.064,0.18 1.2,0.4 0.136,0.22 0.687,0.4 1.224,0.4 0.537,0 0.976,0.18 0.976,0.4 0,0.22 0.199,0.4 0.442,0.4 0.243,0 1.278,0.424 2.3,0.942 13.136,6.658 22.215,16.05 28.864,29.858 1.113,2.31 2.196,4.513 2.408,4.895 0.212,0.382 0.386,1.059 0.386,1.505 0,0.446 0.165,1.123 0.366,1.505 3.454,6.55 5.184,29.849 2.756,37.095 -0.222,0.66 -0.467,1.74 -0.545,2.4 -0.245,2.074 -1.091,5.584 -1.441,5.98 -0.185,0.209 -0.336,0.783 -0.336,1.276 0,0.493 -0.18,1.008 -0.4,1.144 -0.22,0.136 -0.4,0.611 -0.4,1.055 0,0.719 -0.932,2.906 -3.727,8.745 -0.474,0.99 -0.97,1.89 -1.102,2 -0.217,0.18 -0.728,0.993 -3.371,5.355 -2.508,4.139 -12.522,14.059 -14.981,14.839 -0.451,0.143 -0.819,0.428 -0.819,0.633 0,0.205 -0.248,0.373 -0.551,0.373 -0.303,0 -0.771,0.265 -1.039,0.588 -0.269,0.324 -1.506,1.106 -2.749,1.738 -1.244,0.632 -3.148,1.63 -4.231,2.217 -1.084,0.588 -3.064,1.418 -4.4,1.846 -1.337,0.429 -3.24,1.083 -4.23,1.455 -0.99,0.371 -2.61,0.822 -3.6,1 -0.99,0.179 -2.88,0.528 -4.2,0.777 -4.251,0.8 -19.261,1.163 -20.339,0.491 -0.254,-0.159 -1.361,-0.42 -2.461,-0.582 -3.416,-0.502 -4.771,-0.772 -5.6,-1.117 -1.68,-0.698 -3.618,-1.397 -4.051,-1.461 -1.772,-0.262 -10.192,-3.999 -10.482,-4.652 -0.074,-0.165 -0.281,-0.3 -0.461,-0.3 -0.391,0 -7.528,-4.741 -8.43,-5.6 -0.346,-0.33 -1.658,-1.545 -2.915,-2.7 -2.812,-2.584 -7.461,-7.847 -8.478,-9.6 -0.416,-0.715 -0.897,-1.3 -1.069,-1.3 -0.173,0 -0.314,-0.193 -0.314,-0.428 0,-0.235 -0.525,-1.19 -1.166,-2.122 -1.604,-2.332 -5.355,-10.335 -6.21,-13.25 -0.387,-1.32 -0.841,-2.76 -1.009,-3.2 -0.841,-2.209 -1.215,-3.797 -1.215,-5.155 0,-0.824 -0.185,-1.843 -0.411,-2.265 -0.427,-0.798 -0.587,-1.865 -0.986,-6.58 -0.13,-1.54 -0.338,-3.43 -0.463,-4.2 -0.258,-1.601 0.503,-11.701 1.086,-14.4 0.214,-0.99 0.476,-2.52 0.582,-3.4 0.224,-1.857 0.911,-4.495 1.431,-5.495 0.199,-0.382 0.361,-1.136 0.361,-1.676 0,-0.54 0.18,-1.093 0.4,-1.229 0.22,-0.136 0.4,-0.62 0.4,-1.075 0,-0.456 0.789,-2.47 1.754,-4.477 0.964,-2.006 1.998,-4.233 2.297,-4.948 0.3,-0.715 0.68,-1.3 0.847,-1.3 0.166,0 0.302,-0.208 0.302,-0.462 0,-0.254 0.45,-1.052 1,-1.774 0.55,-0.721 1,-1.503 1,-1.737 0,-0.235 0.18,-0.427 0.4,-0.427 0.22,0 0.4,-0.236 0.4,-0.525 0,-0.288 0.315,-0.873 0.7,-1.3 0.385,-0.427 1.233,-1.488 1.884,-2.359 1.482,-1.981 2.893,-3.595 4.335,-4.958 0.616,-0.582 2.377,-2.273 3.914,-3.758 1.538,-1.485 3.044,-2.7 3.348,-2.7 0.304,0 0.612,-0.144 0.686,-0.32 0.251,-0.605 5.434,-4.08 6.084,-4.08 0.357,0 0.649,-0.148 0.649,-0.328 0,-0.18 1.485,-1.006 3.3,-1.835 1.815,-0.828 3.613,-1.671 3.995,-1.872 0.382,-0.201 1.147,-0.365 1.7,-0.365 0.553,0 1.005,-0.18 1.005,-0.4 0,-0.22 0.405,-0.406 0.9,-0.413 0.495,-0.007 1.249,-0.277 1.676,-0.6 0.428,-0.323 1.362,-0.587 2.077,-0.587 0.715,0 1.411,-0.18 1.547,-0.4 0.136,-0.22 1.036,-0.4 2,-0.4 0.964,0 1.864,-0.18 2,-0.4 0.141,-0.227 2.178,-0.403 4.724,-0.406 2.462,-0.003 4.746,-0.181 5.076,-0.394 0.778,-0.503 1.489,-0.503 1.8,0"
       id="path2" />
    <path
       style="fill:#cecdcd;fill-rule:evenodd;stroke:none"
       d="m 333.2,137.6 c 0,0.22 -0.3,0.4 -0.667,0.4 -0.366,0 -0.546,0.12 -0.399,0.267 0.147,0.147 0.672,0.059 1.167,-0.195 0.494,-0.255 2.339,-0.519 4.099,-0.587 l 3.2,-0.124 -3.7,-0.081 c -2.254,-0.049 -3.7,0.076 -3.7,0.32 m -4.895,0.683 c 0.497,0.096 1.217,0.092 1.6,-0.008 0.382,-0.1 -0.025,-0.179 -0.905,-0.174 -0.88,0.004 -1.193,0.086 -0.695,0.182 m 15.4,0.004 c 0.609,0.092 1.509,0.09 2,-0.005 0.492,-0.095 -0.005,-0.171 -1.105,-0.168 -1.1,0.003 -1.503,0.081 -0.895,0.173 m -29.221,3.928 c -0.662,0.751 -0.114,0.734 0.892,-0.028 0.546,-0.413 0.606,-0.582 0.2,-0.572 -0.317,0.009 -0.808,0.279 -1.092,0.6 m 47.922,2.432 c -0.003,0.246 0.713,0.922 1.591,1.504 0.879,0.581 2.094,1.491 2.7,2.022 3.249,2.844 4.535,3.753 2.303,1.628 -1.32,-1.256 -3.21,-2.839 -4.2,-3.516 -0.99,-0.678 -1.932,-1.424 -2.094,-1.659 -0.204,-0.296 -0.296,-0.29 -0.3,0.021 m -55.062,1.722 c -0.691,0.421 -1.387,0.977 -1.546,1.235 -0.159,0.257 0.451,-0.022 1.356,-0.621 1.425,-0.943 1.922,-1.387 1.546,-1.382 -0.055,0.001 -0.665,0.347 -1.356,0.768 m -7.304,6.271 c -1.579,1.685 -2.77,3.164 -2.646,3.287 0.123,0.124 0.518,-0.214 0.876,-0.751 0.359,-0.537 1.638,-1.928 2.843,-3.091 1.205,-1.163 2.102,-2.203 1.994,-2.311 -0.108,-0.108 -1.488,1.181 -3.067,2.866 m -168.533,-1.95 c 0.719,0.089 1.799,0.087 2.4,-0.004 0.601,-0.091 0.013,-0.164 -1.307,-0.162 -1.32,0.002 -1.812,0.077 -1.093,0.166 m 7.329,-0.121 c 0.267,0.267 7.143,0.386 7.401,0.128 0.113,-0.114 -1.55,-0.233 -3.695,-0.265 -2.146,-0.032 -3.813,0.03 -3.706,0.137 m 9.664,0.907 c 0.385,0.1 1.015,0.1 1.4,0 0.385,-0.101 0.07,-0.183 -0.7,-0.183 -0.77,0 -1.085,0.082 -0.7,0.183 M 114,152.8 c 0,0.501 0.424,0.501 1.2,0 0.485,-0.314 0.428,-0.389 -0.3,-0.394 -0.495,-0.003 -0.9,0.174 -0.9,0.394 m 257.6,-0.253 c 0,0.163 0.539,0.872 1.198,1.575 0.659,0.703 1.199,1.087 1.2,0.853 0.001,-0.234 -0.538,-0.943 -1.198,-1.575 -0.66,-0.632 -1.2,-1.016 -1.2,-0.853 m -201.8,3.338 c 0.44,0.106 0.971,0.355 1.18,0.554 0.209,0.198 0.659,0.355 1,0.347 0.393,-0.009 0.255,-0.223 -0.38,-0.586 -0.55,-0.314 -1.36,-0.557 -1.8,-0.539 l -0.8,0.032 0.8,0.192 m 163.4,0.468 c -0.77,0.136 0.94,0.252 3.8,0.259 3.311,0.008 4.619,-0.093 3.6,-0.277 -1.883,-0.34 -5.422,-0.332 -7.4,0.018 m 41.8,3.385 c 0,1.522 -0.257,2.961 -0.673,3.769 -0.37,0.718 -0.502,1.201 -0.294,1.072 1.142,-0.705 2.183,-6.551 1.267,-7.117 -0.165,-0.102 -0.3,0.922 -0.3,2.276 M 295.322,158.3 c -0.139,0.385 -0.603,1.205 -1.031,1.823 -0.428,0.618 -0.691,1.21 -0.584,1.317 0.213,0.213 1.893,-2.476 1.893,-3.03 0,-0.189 0.225,-0.434 0.5,-0.545 0.392,-0.158 0.389,-0.209 -0.013,-0.233 -0.281,-0.018 -0.626,0.283 -0.765,0.668 M 325,158.214 c -1.587,0.727 -0.82,0.725 1.2,-0.002 0.88,-0.317 1.24,-0.57 0.8,-0.562 -0.44,0.008 -1.34,0.262 -2,0.564 m 22.877,0.162 c 1.142,0.412 2.267,0.866 2.5,1.01 0.233,0.143 0.423,0.165 0.423,0.047 0,-0.384 -3.328,-1.833 -4.175,-1.819 -0.454,0.008 0.11,0.351 1.252,0.762 m -25.577,1.053 c -0.605,0.328 -1.1,0.681 -1.1,0.784 0,0.386 0.632,0.144 1.6,-0.613 1.189,-0.93 1.011,-0.991 -0.5,-0.171 m -230.7,0.79 c -0.99,0.514 -1.609,0.944 -1.375,0.957 0.512,0.029 3.775,-1.515 3.775,-1.785 0,-0.325 -0.533,-0.141 -2.4,0.828 m 87.824,-0.432 c 0.427,0.323 1.091,0.593 1.476,0.6 0.385,0.007 0.7,0.193 0.7,0.413 0,0.22 0.304,0.4 0.676,0.4 0.959,0 -0.594,-1.169 -1.576,-1.187 -0.385,-0.007 -0.7,-0.193 -0.7,-0.413 0,-0.22 -0.304,-0.4 -0.676,-0.4 -0.59,0 -0.578,0.075 0.1,0.587 m 173.856,1.331 c 0.594,0.392 1.944,1.518 3,2.504 3.432,3.203 5.451,4.779 6.092,4.753 0.419,-0.017 0.344,-0.14 -0.224,-0.37 -0.469,-0.189 -2.7,-1.978 -4.957,-3.974 -2.258,-1.997 -4.304,-3.63 -4.548,-3.628 -0.244,0.001 0.043,0.323 0.637,0.715 m -35.31,1.182 -0.97,1.1 1.2,-1 c 0.66,-0.55 1.275,-1.045 1.367,-1.1 0.091,-0.055 -0.012,-0.1 -0.231,-0.1 -0.218,0 -0.833,0.495 -1.366,1.1 m -131.17,1.1 c 0.274,0.33 0.712,0.6 0.974,0.6 0.261,0 0.894,0.39 1.406,0.868 0.513,0.477 0.857,0.643 0.765,0.368 -0.091,-0.275 -0.701,-0.8 -1.356,-1.168 -0.654,-0.367 -1.249,-0.803 -1.322,-0.968 -0.074,-0.165 -0.321,-0.3 -0.549,-0.3 -0.251,0 -0.219,0.238 0.082,0.6 m 103.658,4.194 c -0.692,1.547 -1.246,3.216 -1.231,3.71 0.017,0.568 0.222,0.271 0.561,-0.815 0.293,-0.94 0.922,-2.535 1.396,-3.544 0.474,-1.008 0.787,-1.907 0.696,-1.998 -0.09,-0.091 -0.731,1.101 -1.422,2.647 m 21.4,1.036 c -2.069,2.981 -1.703,3.078 0.438,0.116 0.933,-1.29 1.563,-2.344 1.4,-2.341 -0.163,0.002 -0.99,1.004 -1.838,2.225 M 77.7,168.44 c -2.316,1.64 -2.144,1.803 0.3,0.284 1.1,-0.684 2,-1.307 2,-1.384 0,-0.359 -0.739,-0.006 -2.3,1.1 m 115.133,-1.105 c 1.177,0.954 3.967,2.625 3.967,2.375 0,-0.18 -0.63,-0.667 -1.4,-1.082 -0.77,-0.415 -1.4,-0.906 -1.4,-1.091 0,-0.185 -0.3,-0.337 -0.667,-0.337 -0.366,0 -0.591,0.061 -0.5,0.135 M 363.6,168.8 c 0.33,0.213 1.05,0.373 1.6,0.354 l 1,-0.034 -1,-0.32 c -1.542,-0.494 -2.364,-0.494 -1.6,0 m 3.2,0 c -0.497,0.321 -0.462,0.388 0.2,0.388 0.44,0 1.07,-0.175 1.4,-0.388 0.497,-0.321 0.462,-0.388 -0.2,-0.388 -0.44,0 -1.07,0.175 -1.4,0.388 m -294.4,3.319 c -0.33,0.272 -0.956,0.941 -1.391,1.488 -0.47,0.588 -0.185,0.432 0.7,-0.385 1.34,-1.24 1.693,-1.648 1.391,-1.609 -0.055,0.007 -0.37,0.235 -0.7,0.506 m 127.2,-0.394 c 0,0.069 0.585,0.654 1.3,1.3 l 1.3,1.175 -1.175,-1.3 c -1.095,-1.212 -1.425,-1.484 -1.425,-1.175 m 89.067,0.942 c -0.147,0.146 -0.256,0.641 -0.242,1.1 0.024,0.766 0.057,0.756 0.409,-0.125 0.392,-0.979 0.31,-1.453 -0.167,-0.975 m -220.438,3.162 c -0.424,0.309 -0.693,0.64 -0.599,0.734 0.094,0.094 0.518,-0.082 0.941,-0.392 0.424,-0.309 0.693,-0.64 0.599,-0.734 -0.094,-0.094 -0.518,0.082 -0.941,0.392 m 219.638,-0.362 c -0.147,0.146 -0.249,0.911 -0.227,1.7 l 0.04,1.433 0.366,-1.56 c 0.369,-1.572 0.313,-2.065 -0.179,-1.573 m -80.485,3.453 c 1.751,1.677 3.221,3.01 3.268,2.964 0.203,-0.204 -1.044,-1.451 -3.65,-3.65 l -2.8,-2.363 3.182,3.049 m -141.18,-1.322 c -0.399,0.441 -0.595,0.802 -0.435,0.802 0.421,0 1.561,-1.205 1.345,-1.421 -0.101,-0.101 -0.51,0.177 -0.91,0.619 m 241.098,1.261 c -0.687,2.973 -0.582,3.842 0.14,1.157 0.322,-1.201 0.535,-2.439 0.473,-2.752 -0.062,-0.313 -0.338,0.405 -0.613,1.595 m -20.224,1.151 c -0.146,0.545 -0.249,1.44 -0.23,1.99 0.025,0.718 0.138,0.557 0.403,-0.573 0.406,-1.732 0.251,-3.002 -0.173,-1.417 M 63.4,180.306 c -0.22,0.162 -1.296,1.374 -2.391,2.694 -1.095,1.32 -2.085,2.49 -2.2,2.6 -0.115,0.11 -0.463,0.56 -0.774,1 -0.845,1.197 1.889,-1.675 4.096,-4.302 1.865,-2.22 2.117,-2.615 1.269,-1.992 m 147.85,2.794 c 0.301,0.385 1.337,1.51 2.302,2.5 1.488,1.527 1.434,1.421 -0.359,-0.7 -1.892,-2.238 -3.325,-3.566 -1.943,-1.8 m 94.936,0.634 c -0.354,1.889 0.043,11.751 0.55,13.666 l 0.424,1.6 -0.242,-1.8 c -0.132,-0.99 -0.258,-4.725 -0.28,-8.3 -0.041,-6.943 -0.065,-7.227 -0.452,-5.166 M 126.4,186.235 c -1.343,0.414 -1.445,0.491 -0.4,0.3 0.77,-0.141 3.29,-0.378 5.6,-0.527 l 4.2,-0.272 -3.8,-0.029 c -2.199,-0.016 -4.559,0.206 -5.6,0.528 m 15.2,-0.227 c 2.31,0.149 4.83,0.388 5.6,0.53 0.77,0.143 0.5,-0.006 -0.6,-0.331 -1.213,-0.359 -3.417,-0.568 -5.6,-0.531 l -3.6,0.06 4.2,0.272 m -19.8,1.192 c -0.504,0.217 -0.578,0.344 -0.2,0.344 0.33,0 0.96,-0.155 1.4,-0.344 0.504,-0.217 0.578,-0.344 0.2,-0.344 -0.33,0 -0.96,0.155 -1.4,0.344 m 28.4,0 c 0.44,0.189 1.07,0.344 1.4,0.344 0.378,0 0.304,-0.127 -0.2,-0.344 -0.44,-0.189 -1.07,-0.344 -1.4,-0.344 -0.378,0 -0.304,0.127 0.2,0.344 m 136.324,2.2 c 0.002,1.32 0.077,1.812 0.166,1.093 0.089,-0.719 0.087,-1.799 -0.004,-2.4 -0.091,-0.601 -0.164,-0.013 -0.162,1.307 M 56.55,188.145 c -1.01,1.155 -3.35,4.574 -3.35,4.896 0,0.189 0.486,-0.372 1.08,-1.248 0.594,-0.876 1.494,-2.041 2,-2.589 0.506,-0.548 0.92,-1.133 0.92,-1.3 0,-0.41 -0.119,-0.366 -0.65,0.241 m 159.101,0.15 c 0.302,0.383 0.966,1.148 1.475,1.7 0.51,0.553 1.198,1.517 1.53,2.142 0.331,0.626 0.697,1.043 0.812,0.928 0.216,-0.216 -1.586,-2.984 -2.973,-4.565 -0.922,-1.052 -1.653,-1.229 -0.844,-0.205 M 113,189.752 c -1.399,0.533 -2.938,1.418 -2.495,1.436 0.168,0.007 0.618,-0.155 1,-0.358 0.382,-0.204 1.415,-0.645 2.295,-0.98 0.88,-0.335 1.33,-0.597 1,-0.582 -0.33,0.015 -1.14,0.233 -1.8,0.484 m 46.4,0.098 c 0.88,0.335 1.913,0.776 2.295,0.98 1.016,0.542 1.443,0.429 0.505,-0.134 -0.965,-0.579 -3.444,-1.49 -4,-1.469 -0.22,0.008 0.32,0.288 1.2,0.623 m 127.46,5.55 c -0.002,1.32 0.142,2.76 0.32,3.2 0.188,0.465 0.246,-0.373 0.139,-2 -0.241,-3.658 -0.455,-4.216 -0.459,-1.2 m -236.986,2.474 c -1.491,2.323 -2.648,4.286 -2.571,4.363 0.077,0.076 1.368,-1.753 2.868,-4.066 1.501,-2.312 2.658,-4.275 2.571,-4.362 -0.086,-0.086 -1.377,1.743 -2.868,4.065 m 53.526,-3.264 -1.2,1.006 1.6,-0.88 c 2.02,-1.111 2.05,-1.136 1.367,-1.134 -0.312,0.001 -1.107,0.455 -1.767,1.008 m 64.633,-0.875 c 0.86,0.698 3.967,2.658 3.967,2.503 0,-0.262 -3.457,-2.638 -3.839,-2.638 -0.162,0 -0.219,0.061 -0.128,0.135 m 54.854,4.861 c 0.91,1.428 1.729,2.521 1.82,2.431 0.174,-0.175 -3.017,-5.027 -3.306,-5.027 -0.093,0 0.575,1.168 1.486,2.596 M 173.6,197.371 c 0,0.11 0.675,0.659 1.5,1.219 0.824,0.561 3.289,2.772 5.478,4.915 2.188,2.142 3.562,3.327 3.053,2.634 -1.616,-2.205 -10.031,-9.56 -10.031,-8.768 M 97.933,198.3 c -0.073,0.165 -0.943,0.968 -1.933,1.784 -2.408,1.985 -5.609,5.041 -6.818,6.51 -0.54,0.657 0.638,-0.374 2.618,-2.29 1.98,-1.917 4.365,-4.045 5.3,-4.729 0.935,-0.684 1.7,-1.319 1.7,-1.41 0,-0.29 -0.728,-0.177 -0.867,0.135 m 209.295,1.176 c 0.09,1.039 0.716,1.92 0.744,1.048 0.015,-0.482 -0.152,-0.988 -0.372,-1.124 -0.22,-0.136 -0.387,-0.102 -0.372,0.076 M 287.701,201 c 0.004,0.88 0.086,1.193 0.182,0.695 0.096,-0.497 0.092,-1.217 -0.008,-1.6 -0.1,-0.382 -0.179,0.025 -0.174,0.905 m 0.543,2.8 c 0.329,1.471 0.558,1.79 0.55,0.767 -0.003,-0.422 -0.189,-1.037 -0.412,-1.367 -0.297,-0.438 -0.334,-0.276 -0.138,0.6 m 20.581,0.4 c 0,0.22 0.265,0.749 0.588,1.176 0.323,0.428 0.587,0.597 0.587,0.377 0,-0.22 -0.264,-0.749 -0.587,-1.177 -0.323,-0.427 -0.588,-0.596 -0.588,-0.376 m -263.992,2.661 c -0.678,1.39 -1.232,2.71 -1.232,2.933 10e-4,0.223 0.629,-0.841 1.397,-2.364 0.767,-1.524 1.322,-2.844 1.232,-2.934 -0.09,-0.09 -0.719,0.974 -1.397,2.365 m 265.753,0.639 c 0.349,0.715 0.72,1.3 0.824,1.3 0.398,0 0.142,-0.637 -0.643,-1.6 l -0.815,-1 0.634,1.3 m -82.379,0.779 c 0.675,1.614 0.993,2.079 0.993,1.449 0,-0.497 -1.191,-2.928 -1.435,-2.928 -0.097,0 0.102,0.666 0.442,1.479 m -43.144,0.221 c 2.012,2.254 2.998,3.231 2.49,2.466 -0.921,-1.387 -2.682,-3.366 -2.997,-3.366 -0.162,0 0.066,0.405 0.507,0.9 m 127.014,1.412 c 1.807,2.463 2.513,3.288 2.814,3.288 0.187,0 -0.041,-0.405 -0.506,-0.9 -0.466,-0.495 -1.142,-1.395 -1.502,-2 -0.361,-0.605 -0.807,-1.1 -0.992,-1.1 -0.185,0 -0.101,0.321 0.186,0.712 m -226.848,1.579 c -0.676,0.82 -1.229,1.67 -1.229,1.889 0,0.219 0.298,-0.047 0.662,-0.591 0.365,-0.544 1.026,-1.394 1.47,-1.889 0.444,-0.495 0.699,-0.9 0.567,-0.9 -0.132,0 -0.794,0.671 -1.47,1.491 m -42.6,0.17 c -0.593,1.19 -0.853,2.296 -0.442,1.885 0.313,-0.313 1.436,-3.146 1.248,-3.146 -0.097,0 -0.46,0.568 -0.806,1.261 M 290.485,210.7 c 0.083,0.165 0.745,1.515 1.47,3 0.726,1.484 1.471,2.793 1.656,2.907 0.185,0.114 -0.369,-1.236 -1.231,-3 -0.862,-1.764 -1.675,-3.207 -1.807,-3.207 -0.132,0 -0.172,0.135 -0.088,0.3 m -101.645,2.8 c 0.498,0.825 1.374,2.22 1.947,3.1 0.573,0.88 1.471,2.544 1.995,3.699 0.525,1.154 1.023,2.029 1.109,1.944 0.268,-0.269 -1.58,-3.925 -3.613,-7.143 -1.964,-3.109 -3.136,-4.414 -1.438,-1.6 m 41.972,0.9 c 0,0.33 0.175,0.87 0.388,1.2 0.345,0.533 0.388,0.533 0.388,0 0,-0.33 -0.175,-0.87 -0.388,-1.2 -0.345,-0.533 -0.388,-0.533 -0.388,0 m 127.888,0.664 c -0.605,0.319 -1.086,0.795 -1.068,1.058 0.023,0.348 0.086,0.342 0.233,-0.022 0.111,-0.275 0.435,-0.5 0.719,-0.5 0.285,0 0.742,-0.27 1.016,-0.6 0.582,-0.701 0.548,-0.699 -0.9,0.064 m -318.246,2.523 c -1.218,3.256 -2.211,6.789 -1.974,7.026 0.115,0.116 0.434,-0.65 0.709,-1.702 0.274,-1.051 0.834,-2.891 1.244,-4.088 0.784,-2.29 0.801,-3.321 0.021,-1.236 m 40.733,0.234 c -0.483,0.782 -0.8,1.5 -0.704,1.596 0.096,0.096 0.578,-0.544 1.071,-1.421 1.112,-1.978 0.83,-2.112 -0.367,-0.175 m 150.427,-1.367 c -0.008,0.14 0.249,0.86 0.57,1.6 0.322,0.74 0.585,1.076 0.586,0.746 0.002,-0.576 -1.127,-2.866 -1.156,-2.346 m 139.586,0.133 c 0,0.199 0.328,0.733 0.73,1.187 0.761,0.861 1.559,3.169 1.806,5.226 0.135,1.122 0.148,1.109 0.198,-0.2 0.067,-1.745 -0.724,-4.076 -1.865,-5.493 -0.478,-0.594 -0.869,-0.918 -0.869,-0.72 m -77.2,0.835 c 0,0.513 3.202,4.857 4.255,5.774 1.071,0.932 1.063,0.906 -0.114,-0.4 -0.692,-0.768 -1.832,-2.341 -2.534,-3.496 -1.179,-1.941 -1.607,-2.441 -1.607,-1.878 m 59.493,1.192 c -0.821,0.558 -1.493,1.101 -1.493,1.206 0,0.105 0.72,-0.285 1.6,-0.867 1.397,-0.925 1.87,-1.353 1.493,-1.353 -0.059,0 -0.779,0.456 -1.6,1.014 M 321.2,218.191 c 0,0.246 3.299,1.844 3.465,1.678 0.12,-0.121 -2.969,-1.869 -3.303,-1.869 -0.089,0 -0.162,0.086 -0.162,0.191 m -88.156,2.409 c 0.329,1.471 0.558,1.79 0.55,0.767 -0.003,-0.422 -0.189,-1.037 -0.412,-1.367 -0.297,-0.438 -0.334,-0.276 -0.138,0.6 m -154.068,1.613 c -0.596,1.218 -0.991,2.305 -0.879,2.417 0.111,0.112 0.533,-0.569 0.936,-1.513 0.403,-0.945 0.87,-2.032 1.037,-2.417 0.714,-1.643 -0.102,-0.514 -1.094,1.513 M 347.2,221.2 c 0,0.22 0.259,0.4 0.576,0.4 0.317,0 0.688,-0.18 0.824,-0.4 0.136,-0.22 -0.123,-0.4 -0.576,-0.4 -0.453,0 -0.824,0.18 -0.824,0.4 m -113.572,1.476 c 0.09,1.039 0.716,1.92 0.744,1.048 0.015,-0.482 -0.152,-0.988 -0.372,-1.124 -0.22,-0.136 -0.387,-0.102 -0.372,0.076 M 195.04,225 c 0.78,2.483 1.73,4.691 1.721,4 -0.006,-0.44 -0.452,-1.7 -0.991,-2.8 -0.54,-1.1 -0.868,-1.64 -0.73,-1.2 m 106.137,1.49 c 1.197,1.26 2.262,2.205 2.366,2.1 0.105,-0.104 0.112,-0.235 0.015,-0.29 -0.096,-0.055 -1.161,-1 -2.366,-2.1 l -2.192,-2 2.177,2.29 m 71.55,-0.679 c -0.346,0.764 -0.493,1.389 -0.327,1.389 0.362,0 1.384,-2.349 1.132,-2.601 -0.097,-0.097 -0.459,0.449 -0.805,1.212 m -334.86,0.056 c -0.147,0.146 -0.252,0.731 -0.233,1.3 0.034,1.014 0.041,1.012 0.387,-0.147 0.364,-1.217 0.31,-1.618 -0.154,-1.153 m 332.314,3.243 c -2.066,1.902 -3.867,3.29 -4.268,3.29 -0.172,0 -0.313,0.192 -0.313,0.427 0,0.235 0.543,0.041 1.208,-0.432 1.38,-0.984 5.494,-4.762 5.192,-4.77 -0.11,-0.003 -0.929,0.666 -1.819,1.485 M 235.212,229 c 0,0.44 0.175,1.07 0.388,1.4 0.321,0.497 0.388,0.462 0.388,-0.2 0,-0.44 -0.175,-1.07 -0.388,-1.4 -0.321,-0.497 -0.388,-0.462 -0.388,0.2 M 37,230 c -0.152,0.691 -0.193,1.341 -0.091,1.442 0.102,0.102 0.3,-0.389 0.441,-1.092 0.333,-1.667 0.01,-1.99 -0.35,-0.35 m 267.773,-0.246 c 0.859,0.929 3.627,2.83 3.627,2.49 0,-0.071 -1.035,-0.897 -2.3,-1.836 -1.471,-1.092 -1.949,-1.328 -1.327,-0.654 m -229.096,0.784 c -0.262,0.726 -0.468,1.576 -0.458,1.89 0.011,0.315 0.293,-0.21 0.628,-1.167 0.335,-0.956 0.541,-1.806 0.458,-1.89 -0.083,-0.083 -0.366,0.442 -0.628,1.167 M 236.08,232.8 c 0,0.55 0.144,1.45 0.32,2 l 0.32,1 v -1 c 0,-0.55 -0.144,-1.45 -0.32,-2 l -0.32,-1 v 1 m -38.236,0.6 c 0.329,1.471 0.558,1.79 0.55,0.767 -0.003,-0.422 -0.189,-1.037 -0.412,-1.367 -0.297,-0.438 -0.334,-0.276 -0.138,0.6 m -161.625,0.927 c -0.164,0.95 -0.202,1.823 -0.085,1.941 0.292,0.291 0.792,-2.495 0.566,-3.147 -0.1,-0.286 -0.316,0.256 -0.481,1.206 M 361,235.435 c -1.32,0.739 -2.207,1.348 -1.971,1.354 0.48,0.012 4.971,-2.353 4.971,-2.619 0,-0.327 -0.619,-0.066 -3,1.265 m -47,0.365 c 0.99,0.53 1.98,0.964 2.2,0.964 0.22,0 -0.41,-0.434 -1.4,-0.964 -0.99,-0.53 -1.98,-0.964 -2.2,-0.964 -0.22,0 0.41,0.434 1.4,0.964 m -115.362,0.8 c 0.332,1.984 0.564,2.304 0.556,0.767 -0.003,-0.642 -0.19,-1.437 -0.415,-1.767 -0.293,-0.43 -0.333,-0.146 -0.141,1 m -124.762,0.21 c -0.146,0.545 -0.249,1.44 -0.23,1.99 0.025,0.718 0.138,0.557 0.403,-0.573 0.406,-1.732 0.251,-3.002 -0.173,-1.417 m 163.193,0.99 c 0.119,1.1 0.336,24.5 0.481,52 l 0.265,50 0.058,-48.4 c 0.047,-38.794 -0.049,-49.114 -0.481,-52 -0.297,-1.98 -0.442,-2.7 -0.323,-1.6 m -201.676,2.314 c -0.149,1.199 -0.198,2.519 -0.108,2.933 0.09,0.414 0.304,-0.476 0.475,-1.978 0.171,-1.503 0.219,-2.823 0.108,-2.934 -0.111,-0.111 -0.325,0.779 -0.475,1.979 m 288.24,-0.767 c 0.092,0.081 0.887,0.267 1.767,0.415 1.146,0.192 1.43,0.152 1,-0.141 -0.54,-0.368 -3.168,-0.628 -2.767,-0.274 m 25.967,0.259 c -0.422,0.276 -0.185,0.317 0.8,0.136 1.725,-0.317 2.051,-0.544 0.767,-0.536 -0.532,0.003 -1.237,0.183 -1.567,0.4 M 199.268,240.6 c 0.006,0.44 0.156,1.25 0.332,1.8 l 0.32,1 0.012,-1 c 0.006,-0.55 -0.143,-1.36 -0.332,-1.8 l -0.344,-0.8 0.012,0.8 M 328.8,240.402 c 1.832,0.345 5.47,0.52 5.167,0.249 -0.092,-0.081 -1.697,-0.247 -3.567,-0.368 -2.47,-0.159 -2.908,-0.126 -1.6,0.119 m 15.6,0.005 c -0.621,0.204 -0.091,0.244 1.4,0.105 1.32,-0.123 2.475,-0.288 2.567,-0.368 0.322,-0.279 -2.979,-0.06 -3.967,0.263 m -271.422,1.771 c -0.151,0.803 -0.184,1.549 -0.074,1.659 0.11,0.11 0.323,-0.456 0.474,-1.259 0.15,-0.803 0.184,-1.55 0.074,-1.66 -0.11,-0.11 -0.324,0.457 -0.474,1.26 M 336.5,241.096 c 1.265,0.079 3.335,0.079 4.6,0 1.265,-0.08 0.23,-0.145 -2.3,-0.145 -2.53,0 -3.565,0.065 -2.3,0.145 M 34.97,253 c 10e-4,4.84 0.059,6.765 0.129,4.278 0.07,-2.487 0.07,-6.447 -10e-4,-8.8 -0.07,-2.353 -0.128,-0.318 -0.128,4.522 m 165.205,0.2 c 10e-4,7.874 0.045,8.508 0.351,5.068 0.2,-2.248 0.199,-6.102 -0.002,-9 -0.34,-4.922 -0.35,-4.808 -0.349,3.932 M 72.354,248.9 c -0.025,1.155 -0.103,2.588 -0.174,3.184 -0.072,0.597 0.007,2.577 0.174,4.4 0.27,2.954 0.308,2.607 0.351,-3.184 0.026,-3.575 -0.031,-6.5 -0.129,-6.5 -0.097,0 -0.197,0.945 -0.222,2.1 m 0.499,14.7 c -0.022,0.77 0.134,1.67 0.347,2 0.477,0.739 0.477,-0.324 0,-2.2 l -0.305,-1.2 -0.042,1.4 m -37.56,1.2 c 10e-4,0.99 0.139,2.34 0.307,3 l 0.305,1.2 0.025,-1.4 c 0.013,-0.77 -0.125,-2.12 -0.307,-3 l -0.331,-1.6 10e-4,1.8 m 164.107,0.4 c -0.152,0.691 -0.186,1.347 -0.076,1.457 0.11,0.11 0.324,-0.366 0.476,-1.057 0.152,-0.691 0.186,-1.347 0.076,-1.457 -0.11,-0.11 -0.324,0.366 -0.476,1.057 m -125.768,2.354 c -0.033,0.997 0.303,2.428 1.64,6.975 0.441,1.502 0.892,2.64 1.002,2.53 0.11,-0.109 -0.155,-1.248 -0.587,-2.529 -0.433,-1.282 -1.01,-3.41 -1.282,-4.73 -0.645,-3.125 -0.736,-3.39 -0.773,-2.246 m 125.073,1.685 c -0.15,1.011 -0.561,2.688 -0.914,3.726 -0.352,1.038 -0.57,2.097 -0.485,2.354 0.236,0.706 1.965,-6.027 1.808,-7.039 -0.08,-0.519 -0.248,-0.125 -0.409,0.959 M 36.08,271.6 c 0,0.55 0.144,1.45 0.32,2 l 0.32,1 v -1 c 0,-0.55 -0.144,-1.45 -0.32,-2 l -0.32,-1 v 1 m 0.757,3.8 c -0.042,0.926 0.966,5.839 1.559,7.6 0.398,1.181 0.401,1.177 0.164,-0.2 -0.573,-3.336 -1.69,-8.132 -1.723,-7.4 m 158.969,3.793 c -0.175,0.546 -0.933,2.322 -1.683,3.946 -0.75,1.624 -1.3,3.017 -1.222,3.095 0.255,0.255 3.54,-7.112 3.38,-7.579 -0.086,-0.25 -0.299,-0.008 -0.475,0.538 m -118.585,0.911 c -0.031,0.455 1.658,3.95 1.828,3.781 0.08,-0.081 -0.294,-1.033 -0.831,-2.116 -0.537,-1.083 -0.985,-1.832 -0.997,-1.665 m 5.658,11.1 c 0.685,1.103 1.325,1.925 1.422,1.828 0.18,-0.18 -2.206,-3.832 -2.504,-3.832 -0.09,0 0.397,0.902 1.082,2.004 m 107.148,-0.442 c -0.455,0.639 -0.827,1.359 -0.827,1.6 0,0.241 -0.18,0.438 -0.4,0.438 -0.22,0 -0.4,0.191 -0.4,0.424 0,0.757 0.714,0.007 1.74,-1.828 1.148,-2.054 1.098,-2.334 -0.113,-0.634 m -148.811,1.092 c -0.009,0.25 0.247,1.06 0.568,1.8 0.322,0.74 0.592,1.142 0.6,0.892 0.009,-0.25 -0.247,-1.06 -0.568,-1.8 -0.322,-0.74 -0.592,-1.142 -0.6,-0.892 m 43.626,2.446 c 1.658,2.152 2.358,2.921 2.358,2.593 0,-0.203 -0.355,-0.691 -0.79,-1.084 -0.434,-0.393 -0.896,-1.051 -1.027,-1.462 -0.13,-0.411 -0.427,-0.747 -0.659,-0.747 -0.251,0 -0.204,0.283 0.118,0.7 m 101.709,1.8 c -1.3,1.483 -1.986,2.596 -0.922,1.495 1.246,-1.289 2.119,-2.395 1.89,-2.395 -0.099,0 -0.534,0.405 -0.968,0.9 M 87.6,297.49 c 0,0.175 0.405,0.766 0.901,1.314 0.495,0.548 1.395,1.595 2,2.327 0.604,0.732 1.099,1.171 1.099,0.975 0,-0.195 -0.315,-0.706 -0.7,-1.134 -0.385,-0.429 -1.285,-1.459 -2,-2.29 -0.715,-0.83 -1.3,-1.367 -1.3,-1.192 m -42.922,3.105 c 0.366,0.767 0.736,1.324 0.823,1.237 0.183,-0.183 -1.031,-2.632 -1.305,-2.632 -0.101,0 0.116,0.628 0.482,1.395 m 0.922,1.901 c 0,0.417 1.74,3.497 1.891,3.346 0.082,-0.081 -0.24,-0.844 -0.714,-1.695 -0.926,-1.66 -1.177,-2.012 -1.177,-1.651 m 132.561,2.556 c -1.519,1.459 -2.406,2.404 -1.972,2.1 1.11,-0.776 5.262,-4.74 4.972,-4.747 -0.131,-0.003 -1.481,1.189 -3,2.647 M 95,305.307 c 1.32,1.218 2.474,2.144 2.564,2.057 0.09,-0.087 -0.27,-0.531 -0.8,-0.986 -3.625,-3.109 -4.634,-3.722 -1.764,-1.071 m -44.521,5.897 c 0.685,1.103 1.325,1.925 1.422,1.828 0.18,-0.18 -2.206,-3.832 -2.504,-3.832 -0.09,0 0.397,0.902 1.082,2.004 m 50.123,-1.601 c 0.137,0.221 0.822,0.699 1.523,1.062 1.186,0.613 1.237,0.612 0.726,-0.003 -0.302,-0.364 -0.797,-0.662 -1.1,-0.662 -0.303,0 -0.551,-0.18 -0.551,-0.4 0,-0.22 -0.191,-0.4 -0.424,-0.4 -0.233,0 -0.311,0.181 -0.174,0.403 m 7.398,4.158 c 0,0.294 4.834,2.739 5.029,2.543 0.082,-0.081 -0.878,-0.678 -2.132,-1.326 -2.861,-1.477 -2.897,-1.492 -2.897,-1.217 m 54.8,0.959 c 0,0.175 -0.643,0.552 -1.43,0.836 -0.786,0.285 -1.333,0.614 -1.214,0.733 0.264,0.264 2.917,-0.96 3.251,-1.5 0.132,-0.214 0.05,-0.389 -0.183,-0.389 -0.233,0 -0.424,0.144 -0.424,0.32 M 54.8,318 c 0.697,0.88 1.354,1.6 1.46,1.6 0.339,0 -2.047,-3.183 -2.394,-3.191 -0.183,-0.005 0.237,0.711 0.934,1.591 m 69.376,1.413 c 0.428,0.323 0.957,0.587 1.177,0.587 0.22,0 0.051,-0.264 -0.377,-0.587 -0.427,-0.323 -0.956,-0.588 -1.176,-0.588 -0.22,0 -0.051,0.265 0.376,0.588 m 3.709,0.669 c 1.147,0.206 2.347,0.227 2.667,0.046 0.352,-0.199 -0.469,-0.346 -2.085,-0.374 l -2.667,-0.046 2.085,0.374 M 141.8,320 c 0.44,0.189 1.07,0.344 1.4,0.344 0.378,0 0.304,-0.127 -0.2,-0.344 -0.44,-0.189 -1.07,-0.344 -1.4,-0.344 -0.378,0 -0.304,0.127 0.2,0.344 m 3.7,-0.118 c 0.495,0.096 1.305,0.096 1.8,0 0.495,-0.095 0.09,-0.173 -0.9,-0.173 -0.99,0 -1.395,0.078 -0.9,0.173 m -88.7,0.319 c 0,0.732 10.545,12.199 11.218,12.199 0.129,0 -1.41,-1.665 -3.419,-3.7 -2.009,-2.035 -4.586,-4.841 -5.726,-6.235 -1.14,-1.394 -2.073,-2.413 -2.073,-2.264 m 140.575,5.099 -1.175,1.3 1.228,-1.106 c 0.675,-0.608 1.35,-0.983 1.5,-0.833 0.149,0.15 0.272,0.062 0.272,-0.194 0,-0.795 -0.602,-0.521 -1.825,0.833 m -3.575,3.667 c -1.845,1.937 -6.832,6.367 -9.626,8.551 -0.646,0.504 -0.364,0.387 0.626,-0.261 2.27,-1.486 10.248,-8.625 10.808,-9.672 0.585,-1.093 0.455,-0.994 -1.808,1.382 m -123,5.979 c 0,0.11 0.54,0.584 1.2,1.054 0.66,0.47 1.2,0.764 1.2,0.654 0,-0.11 -0.54,-0.584 -1.2,-1.054 -0.66,-0.47 -1.2,-0.764 -1.2,-0.654 m 128.428,3.087 c 0.016,0.752 0.184,1.727 0.375,2.167 0.223,0.515 0.264,0.087 0.115,-1.2 -0.274,-2.378 -0.529,-2.881 -0.49,-0.967 M 74.8,337.749 c 0,0.086 0.63,0.637 1.4,1.224 0.77,0.587 1.398,0.924 1.395,0.747 -0.003,-0.176 -0.633,-0.727 -1.4,-1.224 -0.767,-0.497 -1.395,-0.833 -1.395,-0.747 m 106.1,1.891 c -0.935,0.662 -1.7,1.293 -1.7,1.401 0,0.109 0.81,-0.36 1.8,-1.041 0.99,-0.681 1.8,-1.32 1.8,-1.419 0,-0.276 -0.076,-0.233 -1.9,1.059 m -101.256,1.756 c 0.966,0.768 1.936,1.387 2.156,1.377 0.22,-0.011 0.061,-0.234 -0.354,-0.497 -0.414,-0.262 -1.25,-0.881 -1.857,-1.376 -0.608,-0.495 -1.239,-0.9 -1.403,-0.9 -0.164,0 0.492,0.628 1.458,1.396 m 120.377,0.29 c -0.026,0.867 1.812,4.258 2.88,5.314 0.493,0.487 0.346,0.096 -0.378,-1 -0.653,-0.99 -1.478,-2.52 -1.834,-3.4 -0.356,-0.88 -0.657,-1.291 -0.668,-0.914 m -28.894,3.649 c -1.69,0.909 -3.012,1.714 -2.937,1.788 0.13,0.13 4.949,-2.289 6.21,-3.117 1.471,-0.966 -0.475,-0.176 -3.273,1.329 m 64.037,-0.035 c -0.255,0.495 -0.846,1.349 -1.314,1.897 l -0.85,0.997 0.941,-0.796 c 0.892,-0.755 2.301,-2.998 1.883,-2.998 -0.108,0 -0.405,0.405 -0.66,0.9 M 88,346.2 c 0.99,0.53 1.98,0.964 2.2,0.964 0.22,0 -0.41,-0.434 -1.4,-0.964 -0.99,-0.53 -1.98,-0.964 -2.2,-0.964 -0.22,0 0.41,0.434 1.4,0.964 m 143.506,3.436 -1.306,1.236 1.5,-1.083 c 0.825,-0.596 1.5,-1.153 1.5,-1.236 0,-0.373 -0.478,-0.067 -1.694,1.083 m -135.339,0.181 c 1.302,0.54 2.431,0.918 2.509,0.84 0.187,-0.186 -3.848,-1.862 -4.429,-1.84 -0.246,0.009 0.618,0.459 1.92,1 M 206,350.153 c 0.55,0.618 1.54,1.378 2.2,1.691 0.682,0.322 0.871,0.349 0.438,0.062 -0.419,-0.278 -1.409,-1.039 -2.2,-1.691 L 205,349.03 l 1,1.123 m -46,0.08 c -1.352,0.751 -0.389,0.722 1.054,-0.031 0.63,-0.328 0.876,-0.581 0.546,-0.56 -0.33,0.02 -1.05,0.286 -1.6,0.591 m -54.2,2.567 c 0.44,0.189 1.07,0.344 1.4,0.344 0.378,0 0.304,-0.127 -0.2,-0.344 -0.44,-0.189 -1.07,-0.344 -1.4,-0.344 -0.378,0 -0.304,0.127 0.2,0.344 m 3.4,0.8 c 1.542,0.494 2.364,0.494 1.6,0 -0.33,-0.213 -1.05,-0.373 -1.6,-0.354 l -1,0.034 1,0.32 m 38.2,0.01 c -0.534,0.237 -0.202,0.276 1,0.117 0.99,-0.131 1.875,-0.303 1.967,-0.383 0.347,-0.301 -2.203,-0.072 -2.967,0.266 m 64.8,-0.01 c 1.101,0.473 1.492,0.473 1.2,0 -0.136,-0.22 -0.642,-0.387 -1.124,-0.372 -0.845,0.027 -0.847,0.041 -0.076,0.372 m 11.6,0 c -0.292,0.473 0.099,0.473 1.2,0 0.771,-0.331 0.769,-0.345 -0.076,-0.372 -0.482,-0.015 -0.988,0.152 -1.124,0.372 m -111.095,0.683 c 0.497,0.096 1.217,0.092 1.6,-0.008 0.382,-0.1 -0.025,-0.179 -0.905,-0.174 -0.88,0.004 -1.193,0.086 -0.695,0.182 m 29.695,0.124 c -0.621,0.204 -0.091,0.244 1.4,0.105 1.32,-0.123 2.475,-0.288 2.567,-0.368 0.322,-0.279 -2.979,-0.06 -3.967,0.263 m 73.937,-0.034 c 1.395,0.127 3.555,0.127 4.8,0.001 1.506,-0.153 0.658,-0.231 -2.537,-0.231 -3.513,-10e-4 -4.12,0.061 -2.263,0.23 m -100.137,0.43 c 1.214,0.306 6.074,0.519 5.767,0.253 -0.092,-0.08 -1.697,-0.237 -3.567,-0.35 -1.872,-0.114 -2.861,-0.07 -2.2,0.097 m 20.1,0.29 c 0.935,0.084 2.465,0.084 3.4,0 0.935,-0.084 0.17,-0.153 -1.7,-0.153 -1.87,0 -2.635,0.069 -1.7,0.153 m -10.715,0.497 c 1.861,0.137 4.651,0.139 6.2,0.004 1.972,-0.172 0.958,-0.247 -3.385,-0.249 -4.962,-0.003 -5.524,0.046 -2.815,0.245"
       id="path3" />
    <path
       style="fill:#dedcdc;fill-rule:evenodd;stroke:none"
       d="m 333.464,137.9 c -0.101,0.165 1.581,0.3 3.738,0.3 2.157,0 3.839,-0.135 3.737,-0.3 -0.103,-0.165 -1.785,-0.3 -3.739,-0.3 -1.954,0 -3.635,0.135 -3.736,0.3 m -7.064,0.9 c 0,0.22 0.349,0.4 0.776,0.4 0.427,0 0.888,-0.18 1.024,-0.4 0.14,-0.227 -0.196,-0.4 -0.776,-0.4 -0.563,0 -1.024,0.18 -1.024,0.4 m 18.8,-0.074 c 0,0.209 0.457,0.468 1.016,0.575 0.641,0.122 0.961,0.029 0.869,-0.253 -0.183,-0.556 -1.885,-0.846 -1.885,-0.322 m -22.996,0.868 c -0.152,0.246 0.251,0.3 1.076,0.143 1.769,-0.337 1.921,-0.537 0.41,-0.537 -0.683,0 -1.352,0.177 -1.486,0.394 M 348.4,139.6 c 0.33,0.213 1.05,0.388 1.6,0.388 0.792,0 0.875,-0.081 0.4,-0.388 -0.33,-0.213 -1.05,-0.388 -1.6,-0.388 -0.792,0 -0.875,0.081 -0.4,0.388 m -29,0.8 c 0.208,0.337 -1.228,0.617 -2.3,0.447 -0.165,-0.026 -0.3,0.104 -0.3,0.289 0,0.184 -0.473,0.551 -1.052,0.815 -0.578,0.263 -0.969,0.561 -0.869,0.661 0.1,0.1 0.925,-0.176 1.832,-0.615 0.908,-0.438 2.019,-0.797 2.47,-0.797 0.45,0 0.819,-0.167 0.819,-0.372 0,-0.205 0.405,-0.45 0.9,-0.546 0.639,-0.123 0.516,-0.189 -0.424,-0.228 -0.792,-0.032 -1.224,0.107 -1.076,0.346 m 33.143,0.2 c 0.33,0.33 0.872,0.6 1.205,0.6 0.333,0 0.716,0.18 0.852,0.4 0.136,0.22 0.427,0.4 0.647,0.4 0.685,0 -0.005,-0.721 -1.316,-1.375 -1.584,-0.79 -2.163,-0.8 -1.388,-0.025 m 7.633,3.613 c 0.428,0.323 0.92,0.587 1.096,0.587 1.142,0 10.522,8.474 12.33,11.14 0.738,1.088 0.908,1.877 0.902,4.2 -0.005,1.844 0.107,2.576 0.316,2.06 1.647,-4.069 -2.892,-10.801 -10.823,-16.049 -0.878,-0.582 -1.597,-1.213 -1.597,-1.404 0,-0.191 -0.36,-0.347 -0.8,-0.347 -0.44,0 -0.8,-0.18 -0.8,-0.4 0,-0.22 -0.315,-0.394 -0.7,-0.387 -0.633,0.011 -0.626,0.068 0.076,0.6 M 310,144.8 c 0,0.22 -0.171,0.4 -0.379,0.4 -0.209,0 -0.865,0.45 -1.459,1 -1.343,1.245 -0.87,1.32 0.627,0.1 0.607,-0.495 1.443,-1.114 1.857,-1.376 0.688,-0.436 0.693,-0.479 0.054,-0.5 -0.385,-0.013 -0.7,0.156 -0.7,0.376 m -7.845,6.313 c -1.762,1.698 -3.733,3.787 -4.379,4.643 -0.647,0.855 -1.401,1.787 -1.676,2.071 -0.275,0.284 -0.5,0.627 -0.5,0.764 0,0.136 -0.593,1.184 -1.318,2.328 -0.725,1.145 -1.645,2.801 -2.044,3.681 -0.399,0.88 -0.976,2.124 -1.283,2.765 -0.307,0.641 -0.478,1.245 -0.381,1.343 0.098,0.097 0.881,-1.327 1.74,-3.165 2.925,-6.262 6.451,-11.026 11.445,-15.463 1.064,-0.945 1.86,-1.795 1.768,-1.887 -0.093,-0.092 -1.61,1.222 -3.372,2.92 M 128.8,150.729 c -0.77,0.07 -1.572,0.296 -1.782,0.502 -0.238,0.232 0.444,0.305 1.8,0.192 1.2,-0.1 3.226,-0.222 4.501,-0.272 1.276,-0.049 2.384,-0.193 2.462,-0.32 0.153,-0.246 -4.647,-0.317 -6.981,-0.102 m 9.405,0.014 c 0.442,0.198 2.872,0.462 5.4,0.587 2.536,0.124 4.235,0.078 3.792,-0.103 -0.441,-0.181 -2.411,-0.357 -4.378,-0.39 -1.966,-0.034 -4.035,-0.15 -4.597,-0.258 -0.869,-0.168 -0.901,-0.143 -0.217,0.164 m 12.771,1.072 c 0.842,0.634 2.224,0.79 2.224,0.252 0,-0.184 -0.225,-0.349 -0.5,-0.368 -0.275,-0.019 -0.95,-0.132 -1.5,-0.252 -0.955,-0.207 -0.965,-0.19 -0.224,0.368 M 120,152 c -0.787,0.509 0.616,0.509 1.8,0 0.733,-0.315 0.716,-0.346 -0.2,-0.366 -0.55,-0.012 -1.27,0.153 -1.6,0.366 m -5.024,1.03 c -0.427,0.346 -0.554,0.517 -0.282,0.38 0.271,-0.137 1.261,-0.401 2.2,-0.586 l 1.706,-0.336 -1.424,-0.044 c -0.782,-0.024 -1.772,0.239 -2.2,0.586 m -3.909,0.741 c -0.219,0.571 -0.041,0.549 2.533,-0.308 0.33,-0.11 -0.056,-0.214 -0.857,-0.231 -0.917,-0.02 -1.539,0.18 -1.676,0.539 m 49.733,-0.218 c 0,0.426 1.397,0.834 2.876,0.842 0.592,0.003 1.173,0.161 1.291,0.351 0.117,0.19 0.803,0.445 1.523,0.566 0.721,0.121 1.67,0.349 2.11,0.508 l 0.8,0.288 -0.8,-0.641 c -0.44,-0.353 -1.374,-0.647 -2.076,-0.654 -0.702,-0.007 -1.388,-0.193 -1.524,-0.413 -0.136,-0.22 -0.867,-0.4 -1.624,-0.4 -0.757,0 -1.376,-0.18 -1.376,-0.4 0,-0.22 -0.27,-0.4 -0.6,-0.4 -0.33,0 -0.6,0.159 -0.6,0.353 M 108,154.4 c -0.33,0.213 -0.977,0.391 -1.439,0.394 -0.742,0.005 -3.361,1.081 -3.361,1.38 0,0.266 2.03,-0.3 2.23,-0.622 0.119,-0.193 0.612,-0.355 1.094,-0.358 1.345,-0.009 4.358,-1.156 3.076,-1.17 -0.55,-0.007 -1.27,0.163 -1.6,0.376 m 223.6,1.995 c -0.409,0.26 -0.09,0.304 1,0.137 1.977,-0.303 2.314,-0.534 0.767,-0.526 -0.642,0.003 -1.437,0.178 -1.767,0.389 m 8,-0.239 c 0,0.086 0.617,0.229 1.372,0.317 0.755,0.088 1.284,0.017 1.176,-0.157 -0.193,-0.313 -2.548,-0.461 -2.548,-0.16 M 172.4,157.2 c 0.776,0.501 1.2,0.501 1.2,0 0,-0.22 -0.405,-0.397 -0.9,-0.394 -0.728,0.005 -0.785,0.08 -0.3,0.394 m -75.2,0.789 c -0.33,0.188 -1.815,0.919 -3.3,1.623 -1.485,0.705 -2.7,1.341 -2.7,1.414 0,0.236 2.563,-0.743 3.912,-1.495 0.722,-0.402 1.542,-0.731 1.824,-0.731 0.281,0 0.86,-0.264 1.288,-0.587 0.874,-0.662 0.057,-0.84 -1.024,-0.224 m 79.751,1.041 c 1.512,0.771 2.834,1.318 2.937,1.216 0.316,-0.316 -4.343,-2.659 -5.234,-2.632 -0.25,0.007 0.784,0.644 2.297,1.416 M 350.2,158.91 c 1.623,1.203 3.982,2.391 3.432,1.729 -0.291,-0.352 -0.778,-0.639 -1.081,-0.639 -0.303,0 -0.551,-0.159 -0.551,-0.353 0,-0.195 -0.315,-0.465 -0.7,-0.601 -0.385,-0.135 -0.97,-0.355 -1.3,-0.488 -0.33,-0.132 -0.24,0.026 0.2,0.352 m -165.819,3.699 c 2.791,1.504 2.982,1.578 2.64,1.026 -0.276,-0.448 -4.215,-2.439 -4.8,-2.426 -0.231,0.005 0.741,0.635 2.16,1.4 m 132.675,0 c -0.849,0.765 -1.38,1.391 -1.179,1.391 0.202,0 0.977,-0.63 1.723,-1.4 1.736,-1.791 1.449,-1.786 -0.544,0.009 m -229.662,-0.07 c -2.213,1.266 -4.074,2.513 -4.794,3.213 -0.708,0.688 -0.638,0.679 0.6,-0.079 0.77,-0.471 1.85,-1.083 2.4,-1.36 0.55,-0.277 1.238,-0.731 1.529,-1.008 0.29,-0.278 0.775,-0.505 1.076,-0.505 0.301,0 0.659,-0.18 0.795,-0.4 0.323,-0.523 -0.585,-0.445 -1.606,0.139 M 356,162.884 c 0,0.076 1.125,1.11 2.5,2.297 1.752,1.514 2.081,1.709 1.1,0.654 -1.284,-1.38 -3.6,-3.279 -3.6,-2.951 m 17.081,1.887 c -0.38,0.643 -1.319,1.558 -2.086,2.032 -1.659,1.026 -1.857,1.458 -0.295,0.645 1.434,-0.746 4.203,-3.848 3.435,-3.848 -0.199,0 -0.674,0.527 -1.054,1.171 m -184.266,0.413 c 0.762,0.651 1.597,1.191 1.856,1.2 0.26,0.009 0.71,0.25 1,0.535 0.889,0.873 4.375,3.168 4.548,2.995 0.167,-0.167 -5.63,-4.314 -6.03,-4.314 -0.123,0 -0.609,-0.36 -1.081,-0.8 -0.472,-0.44 -1.043,-0.8 -1.268,-0.8 -0.226,0 0.213,0.533 0.975,1.184 M 80.8,166.707 c 0,0.169 -0.495,0.615 -1.1,0.99 -0.605,0.375 -0.885,0.687 -0.622,0.692 0.262,0.006 0.982,-0.433 1.6,-0.976 0.617,-0.543 0.897,-0.993 0.622,-1 -0.275,-0.007 -0.5,0.125 -0.5,0.294 m 282.2,1.469 c 1.261,0.558 3.376,0.886 3.846,0.596 0.402,-0.249 0.337,-0.326 -0.251,-0.297 -0.437,0.022 -1.515,-0.076 -2.395,-0.218 -0.88,-0.142 -1.42,-0.179 -1.2,-0.081 m -285.806,1.042 c -0.547,0.421 -0.814,0.762 -0.594,0.76 0.529,-0.005 1.991,-1.12 1.765,-1.347 -0.097,-0.097 -0.624,0.167 -1.171,0.587 m 212.635,1.011 c -0.148,0.586 -0.178,1.155 -0.068,1.265 0.11,0.11 0.32,-0.279 0.468,-0.865 0.147,-0.587 0.177,-1.156 0.067,-1.266 -0.11,-0.11 -0.32,0.279 -0.467,0.866 m -215.313,0.719 c -0.707,0.5 -2.355,1.886 -3.663,3.081 -2.216,2.023 -5.719,5.075 -6.381,5.559 -0.887,0.649 -4.078,4.789 -3.528,4.578 0.361,-0.138 0.656,-0.388 0.656,-0.556 0,-0.468 3.87,-4.321 7.204,-7.173 1.648,-1.41 3.122,-2.773 3.277,-3.03 0.154,-0.256 1.099,-0.984 2.1,-1.616 1,-0.633 1.819,-1.295 1.819,-1.471 0,-0.422 0.001,-0.423 -1.484,0.628 M 196.8,170.299 c 0,0.181 0.495,0.633 1.1,1.004 0.605,0.372 2,1.507 3.1,2.522 1.1,1.016 2.985,2.685 4.189,3.711 1.204,1.025 3.17,2.854 4.369,4.064 1.199,1.21 1.93,1.84 1.624,1.4 -1.905,-2.742 -14.382,-13.761 -14.382,-12.701 m 112.786,1.602 c -0.841,1.686 -0.846,1.699 -0.639,1.699 0.258,0 1.495,-2.492 1.322,-2.664 -0.074,-0.074 -0.381,0.36 -0.683,0.965 m -20.34,0.366 c -0.025,0.257 -0.162,0.797 -0.305,1.2 -0.201,0.569 -0.147,0.63 0.238,0.275 0.273,-0.251 0.41,-0.791 0.305,-1.2 -0.105,-0.408 -0.212,-0.532 -0.238,-0.275 m 18.854,2.826 c -0.712,1.518 -0.616,2.14 0.113,0.74 0.335,-0.642 0.559,-1.311 0.498,-1.487 -0.061,-0.176 -0.336,0.16 -0.611,0.747 M 288.449,175 c -0.033,0.44 -0.153,1.25 -0.266,1.8 l -0.206,1 0.429,-0.981 c 0.236,-0.54 0.355,-1.35 0.266,-1.8 -0.159,-0.798 -0.165,-0.798 -0.223,-0.019 m 18.618,3.267 c -0.147,0.146 -0.256,0.641 -0.242,1.1 0.024,0.766 0.057,0.756 0.409,-0.125 0.392,-0.979 0.31,-1.453 -0.167,-0.975 M 287.6,179.15 c 0,0.413 -0.118,1.34 -0.262,2.062 -0.162,0.807 -0.114,1.22 0.124,1.074 0.403,-0.25 0.737,-3.886 0.356,-3.886 -0.12,0 -0.218,0.338 -0.218,0.75 m 18.428,3.55 c 0.025,0.975 0.067,1.009 0.372,0.3 0.469,-1.093 0.469,-1.4 0,-1.4 -0.22,0 -0.387,0.495 -0.372,1.1 m -19.071,5.3 c 0,2.97 0.063,4.185 0.14,2.7 0.077,-1.485 0.077,-3.915 0,-5.4 -0.077,-1.485 -0.14,-0.27 -0.14,2.7 m -74.23,-2.5 c 1.488,1.871 3.711,3.949 2.841,2.657 -0.794,-1.178 -3.517,-4.157 -3.801,-4.157 -0.129,0 0.303,0.675 0.96,1.5 M 59.2,185.587 c -0.33,0.417 -1.222,1.518 -1.982,2.446 -0.759,0.928 -1.184,1.616 -0.944,1.528 0.574,-0.211 4.267,-4.765 3.848,-4.746 -0.177,0.008 -0.592,0.356 -0.922,0.772 m 76.416,-0.405 c -0.425,0.268 -0.237,0.359 0.686,0.333 0.699,-0.02 1.176,-0.189 1.061,-0.375 -0.273,-0.441 -1.012,-0.423 -1.747,0.042 m -9.826,0.834 c -0.169,0.273 0.133,0.322 0.876,0.144 1.533,-0.368 1.678,-0.56 0.424,-0.56 -0.573,0 -1.158,0.187 -1.3,0.416 m 19.443,-0.272 c 0.472,0.406 2.41,0.649 2.177,0.272 -0.142,-0.229 -0.727,-0.416 -1.3,-0.416 -0.574,0 -0.968,0.065 -0.877,0.144 m -23.418,1.032 c -0.139,0.225 0.376,0.283 1.276,0.144 2.009,-0.31 2.17,-0.52 0.399,-0.52 -0.793,0 -1.547,0.169 -1.675,0.376 m 26.785,-0.224 c 0.22,0.087 1.48,0.375 2.8,0.641 1.32,0.266 2.85,0.66 3.4,0.876 0.774,0.304 0.894,0.284 0.532,-0.086 -0.257,-0.263 -1.247,-0.641 -2.2,-0.839 -2.002,-0.417 -5.122,-0.824 -4.532,-0.592 m -30.424,1.235 c -0.427,0.323 -0.587,0.593 -0.356,0.6 0.231,0.007 0.591,-0.153 0.8,-0.356 0.209,-0.203 0.92,-0.446 1.58,-0.54 l 1.2,-0.171 -1.224,-0.06 c -0.672,-0.033 -1.572,0.204 -2,0.527 m 98.313,2.113 c 0.715,0.817 4.311,6.077 4.311,6.306 0,0.086 0.787,1.289 1.748,2.675 0.961,1.385 2.512,4.013 3.446,5.839 0.934,1.826 1.78,3.239 1.88,3.139 0.648,-0.648 -10.64,-18.659 -11.694,-18.659 -0.167,0 -0.028,0.315 0.309,0.7 m -164.878,5.988 c -3.972,6.161 -6.174,10.082 -5.845,10.411 0.107,0.107 0.711,-0.861 1.343,-2.152 1.154,-2.36 2.282,-4.196 6.542,-10.647 1.271,-1.925 2.185,-3.497 2.03,-3.494 -0.154,0.004 -1.986,2.651 -4.07,5.882 M 108,191.8 c -0.99,0.53 -1.62,0.964 -1.4,0.964 0.22,0 1.21,-0.434 2.2,-0.964 0.99,-0.53 1.62,-0.964 1.4,-0.964 -0.22,0 -1.21,0.434 -2.2,0.964 m 56,-0.417 c 0,0.18 2.402,1.417 2.75,1.417 0.347,0 -1.256,-1.033 -2.05,-1.321 -0.385,-0.14 -0.7,-0.183 -0.7,-0.096 m -62.2,4.052 -1.2,1.031 1.3,-0.86 c 0.715,-0.473 1.3,-0.938 1.3,-1.033 0,-0.3 -0.169,-0.195 -1.4,0.862 m 69.4,-0.073 c 0,0.11 0.81,0.757 1.8,1.438 0.99,0.681 1.8,1.148 1.8,1.038 0,-0.11 -0.81,-0.757 -1.8,-1.438 -0.99,-0.681 -1.8,-1.148 -1.8,-1.038 m 134.828,0.714 c -0.015,0.592 0.152,1.188 0.372,1.324 0.478,0.295 0.478,-0.489 0,-1.6 -0.307,-0.714 -0.347,-0.685 -0.372,0.276 M 287.268,197 c 0.006,0.44 0.156,1.25 0.332,1.8 l 0.32,1 0.012,-1 c 0.006,-0.55 -0.143,-1.36 -0.332,-1.8 l -0.344,-0.8 0.012,0.8 m -191.293,2.653 -1.775,1.634 1.8,-1.32 c 0.99,-0.727 1.875,-1.377 1.967,-1.444 0.091,-0.068 0.08,-0.209 -0.025,-0.314 -0.105,-0.105 -0.99,0.544 -1.967,1.444 m 82,0.839 c 0.976,1.04 1.861,1.805 1.967,1.7 0.105,-0.106 0.114,-0.237 0.019,-0.292 -0.096,-0.055 -0.981,-0.82 -1.967,-1.7 l -1.794,-1.599 1.775,1.891 M 306.845,199 c -0.051,0.564 1.037,4.067 1.525,4.903 0.345,0.592 0.408,0.602 0.418,0.064 0.007,-0.349 -0.117,-0.763 -0.276,-0.921 -0.158,-0.158 -0.589,-1.223 -0.958,-2.367 -0.37,-1.143 -0.688,-1.899 -0.709,-1.679 m -18.839,3.076 c 0.012,1.005 0.781,1.832 0.788,0.848 0.003,-0.482 -0.174,-0.988 -0.394,-1.124 -0.22,-0.136 -0.397,-0.012 -0.394,0.276 m -105.774,2.299 c 0.458,0.564 1.223,1.544 1.7,2.179 0.477,0.635 0.868,0.99 0.868,0.789 0,-0.201 -0.765,-1.181 -1.7,-2.179 -0.935,-0.998 -1.326,-1.353 -0.868,-0.789 m 106.581,0.701 c -0.007,0.262 0.167,0.588 0.387,0.724 0.22,0.136 0.4,0.676 0.4,1.2 0,0.524 0.18,1.064 0.4,1.2 0.22,0.136 0.406,0.642 0.413,1.124 0.007,0.482 0.277,1.225 0.6,1.652 0.323,0.428 0.587,0.573 0.587,0.324 0,-0.249 -0.18,-0.564 -0.4,-0.7 -0.22,-0.136 -0.4,-0.676 -0.4,-1.2 0,-0.524 -0.18,-1.064 -0.4,-1.2 -0.22,-0.136 -0.4,-0.652 -0.4,-1.147 0,-0.914 -1.164,-2.851 -1.187,-1.977 m 19.987,-0.088 c 0,0.834 4.385,7.412 4.941,7.412 0.14,0 -0.387,-0.839 -1.17,-1.865 -0.783,-1.026 -1.865,-2.736 -2.404,-3.8 -0.862,-1.7 -1.367,-2.346 -1.367,-1.747 m -222.126,4.221 c -1.453,2.054 -1.176,2.049 0.478,-0.009 0.707,-0.88 1.142,-1.596 0.967,-1.591 -0.176,0.004 -0.826,0.724 -1.445,1.6 m 98.526,-1.345 c 0,0.218 0.495,0.833 1.1,1.366 l 1.1,0.97 -1,-1.2 c -0.55,-0.66 -1.045,-1.275 -1.1,-1.367 -0.055,-0.091 -0.1,0.012 -0.1,0.231 m 42.818,0.746 c -0.01,0.226 0.516,1.486 1.169,2.8 0.654,1.315 1.2,2.66 1.215,2.99 0.014,0.33 0.302,1.05 0.64,1.6 0.405,0.66 0.518,0.728 0.334,0.2 -0.153,-0.44 -0.367,-1.204 -0.474,-1.698 -0.24,-1.11 -2.858,-6.458 -2.884,-5.892 m -185.605,4.677 c -0.271,0.722 -0.637,1.673 -0.813,2.113 -0.993,2.488 -1.287,3.447 -1.111,3.622 0.108,0.109 0.593,-0.932 1.078,-2.312 0.485,-1.381 1.081,-2.915 1.324,-3.409 0.244,-0.495 0.347,-0.996 0.23,-1.113 -0.117,-0.118 -0.436,0.377 -0.708,1.099 M 189.637,214 c 1.159,1.796 1.163,1.801 1.161,1.367 -0.001,-0.202 -0.466,-0.907 -1.033,-1.567 l -1.031,-1.2 0.903,1.4 m 125.585,0.23 c 1.68,1.744 6.124,4.97 6.845,4.97 0.289,0 -0.718,-0.834 -2.237,-1.853 -1.519,-1.019 -3.368,-2.459 -4.109,-3.2 -1.806,-1.805 -2.248,-1.731 -0.499,0.083 m 46.155,-0.096 c -0.427,0.216 -1.047,0.549 -1.377,0.741 -0.33,0.191 -0.915,0.454 -1.3,0.583 -0.385,0.13 -0.7,0.394 -0.7,0.589 0,0.561 0.483,0.414 1.374,-0.417 0.454,-0.424 2.086,-1.045 3.626,-1.38 2.55,-0.554 2.637,-0.604 0.977,-0.559 -1.002,0.028 -2.172,0.227 -2.6,0.443 M 366,213.791 c 0,0.167 3.153,1.809 3.475,1.809 0.649,0 -0.184,-0.782 -1.409,-1.323 -1.588,-0.701 -2.066,-0.813 -2.066,-0.486 m -284.016,2.232 c -0.479,0.673 -0.805,1.29 -0.723,1.371 0.082,0.082 0.553,-0.468 1.047,-1.223 1.115,-1.7 0.863,-1.815 -0.324,-0.148 m 212.512,1.545 c 0.716,1.082 1.365,1.905 1.442,1.828 0.162,-0.163 -2.288,-3.796 -2.56,-3.796 -0.101,0 0.402,0.885 1.118,1.968 M 370,215.798 c 0,0.158 0.405,0.783 0.9,1.391 0.495,0.607 1.114,1.443 1.376,1.857 0.36,0.569 0.48,0.606 0.491,0.154 0.008,-0.33 -0.611,-1.295 -1.376,-2.144 C 370.626,216.207 370,215.641 370,215.798 M 231.639,217.4 c -0.039,0.582 0.957,3.332 1.337,3.693 0.178,0.169 0.189,-0.143 0.024,-0.693 -0.454,-1.519 -1.331,-3.452 -1.361,-3 m 122.798,0.842 c -1.269,1.262 -0.678,1.232 0.836,-0.042 0.654,-0.55 0.95,-0.981 0.658,-0.958 -0.292,0.023 -0.965,0.473 -1.494,1 M 39.8,220.4 c -0.15,0.473 -0.183,0.95 -0.073,1.06 0.11,0.11 0.323,-0.187 0.473,-0.66 0.15,-0.473 0.183,-0.95 0.073,-1.06 -0.11,-0.11 -0.323,0.187 -0.473,0.66 m 333.187,0.896 c 0.288,1.737 -0.383,4.388 -1.544,6.104 -0.573,0.847 -0.62,1.047 -0.162,0.68 1.746,-1.398 2.925,-6.205 1.883,-7.68 -0.316,-0.447 -0.361,-0.218 -0.177,0.896 M 326.6,221.2 c 0.136,0.22 0.496,0.4 0.8,0.4 0.304,0 0.664,-0.18 0.8,-0.4 0.141,-0.228 -0.204,-0.4 -0.8,-0.4 -0.596,0 -0.941,0.172 -0.8,0.4 m 21.984,0.027 c -0.424,0.686 -0.045,0.753 0.793,0.14 0.649,-0.474 0.669,-0.567 0.123,-0.567 -0.359,0 -0.771,0.192 -0.916,0.427 M 329.6,222 c 1.439,0.461 2.4,0.461 2.4,0 0,-0.22 -0.765,-0.382 -1.7,-0.36 -1.444,0.034 -1.55,0.088 -0.7,0.36 m 14.6,0 c -0.295,0.478 0.489,0.478 1.6,0 0.714,-0.307 0.685,-0.347 -0.276,-0.372 -0.592,-0.015 -1.188,0.152 -1.324,0.372 M 194,222.125 c 0,0.308 1.96,4.042 1.979,3.771 0.027,-0.388 -1.615,-3.896 -1.823,-3.896 -0.086,0 -0.156,0.056 -0.156,0.125 m 39.228,0.551 c -0.015,0.482 0.152,0.988 0.372,1.124 0.473,0.292 0.473,-0.099 0,-1.2 -0.331,-0.771 -0.345,-0.769 -0.372,0.076 m 102.487,0.02 c 1.273,0.08 3.253,0.079 4.4,-0.002 1.147,-0.08 0.105,-0.145 -2.315,-0.144 -2.42,10e-4 -3.358,0.066 -2.085,0.146 m -36.612,1.106 c 0.504,0.924 4.027,4.434 4.189,4.173 0.059,-0.096 -0.957,-1.254 -2.259,-2.573 -1.301,-1.319 -2.17,-2.039 -1.93,-1.6 m -222.212,2.253 c -0.49,1.104 -0.876,2.308 -0.857,2.676 0.02,0.378 0.17,0.224 0.345,-0.355 0.171,-0.563 0.629,-1.694 1.018,-2.514 0.389,-0.82 0.635,-1.563 0.546,-1.652 -0.089,-0.089 -0.562,0.742 -1.052,1.845 M 234.184,225.4 c 0.316,2.155 0.974,5.175 1.395,6.4 l 0.413,1.2 -0.176,-1.2 c -0.316,-2.155 -0.974,-5.175 -1.395,-6.4 l -0.413,-1.2 0.176,1.2 M 38.449,225.2 c -0.033,0.33 -0.16,1.05 -0.282,1.6 -0.192,0.864 -0.16,0.903 0.232,0.288 0.249,-0.391 0.376,-1.111 0.282,-1.6 C 38.586,225 38.482,224.87 38.449,225.2 m -1.207,5.7 c -0.268,1.595 -0.646,3.8 -0.84,4.9 -0.58,3.276 -1.206,9.179 -1.15,10.845 0.033,0.993 0.181,0.471 0.41,-1.445 0.699,-5.862 1.167,-9.429 1.523,-11.6 0.763,-4.652 0.884,-5.6 0.716,-5.6 -0.095,0 -0.392,1.305 -0.659,2.9 m 270.358,0.462 c 0,0.11 0.81,0.757 1.8,1.438 0.99,0.681 1.8,1.148 1.8,1.038 0,-0.11 -0.81,-0.757 -1.8,-1.438 -0.99,-0.681 -1.8,-1.148 -1.8,-1.038 m -71.52,3.438 c 0,0.55 0.144,1.45 0.32,2 l 0.32,1 v -1 c 0,-0.55 -0.144,-1.45 -0.32,-2 l -0.32,-1 v 1 m -162.207,0.553 c -0.15,0.392 -0.262,1.013 -0.248,1.38 0.017,0.442 0.156,0.341 0.412,-0.299 0.212,-0.531 0.324,-1.152 0.248,-1.38 -0.076,-0.227 -0.261,-0.093 -0.412,0.299 m 125.552,3.047 c 0.093,1.21 0.337,3.1 0.542,4.2 l 0.371,2 -0.153,-2 c -0.085,-1.1 -0.328,-2.99 -0.542,-4.2 l -0.388,-2.2 0.17,2.2 M 356.8,237.033 c -1.352,0.751 -0.389,0.722 1.054,-0.031 0.63,-0.328 0.876,-0.581 0.546,-0.56 -0.33,0.02 -1.05,0.286 -1.6,0.591 m -119.96,4 c 0.022,1.082 0.194,2.417 0.381,2.967 0.216,0.631 0.257,-0.032 0.111,-1.8 -0.272,-3.304 -0.549,-3.96 -0.492,-1.167 M 72.821,241.1 c -0.229,0.825 -0.391,2.49 -0.36,3.7 l 0.056,2.2 0.305,-2.8 c 0.168,-1.54 0.432,-3.205 0.588,-3.7 0.156,-0.495 0.181,-0.9 0.055,-0.9 -0.125,0 -0.415,0.675 -0.644,1.5 m 257.212,-0.954 c 0.092,0.08 1.325,0.246 2.74,0.369 1.607,0.139 2.358,0.086 2,-0.14 -0.529,-0.335 -5.114,-0.556 -4.74,-0.229 M 342.6,240.4 c -0.284,0.46 0.364,0.46 1.8,0 0.955,-0.306 0.943,-0.322 -0.276,-0.36 -0.702,-0.022 -1.388,0.14 -1.524,0.36 M 200.663,251 c 0.183,4.374 -0.512,13.305 -1.26,16.2 -0.234,0.908 -0.213,0.929 0.228,0.23 1.05,-1.66 1.989,-16.617 1.234,-19.63 -0.309,-1.23 -0.355,-0.489 -0.202,3.2 M 71.815,250.957 c -0.154,1.847 -0.154,4.322 0,5.5 0.155,1.179 0.426,3.493 0.604,5.143 0.215,1.994 0.232,1.39 0.052,-1.8 -0.149,-2.64 -0.221,-6.465 -0.159,-8.5 0.139,-4.614 -0.126,-4.797 -0.497,-0.343 m -36.458,7.941 c 0.058,4.605 0.22,6.433 0.606,6.8 0.432,0.412 0.471,0.322 0.216,-0.498 -0.17,-0.55 -0.443,-3.61 -0.605,-6.8 l -0.296,-5.8 0.079,6.298 m 37.488,7.002 c 0.452,1.357 0.755,1.668 0.755,0.776 0,-0.287 -0.268,-0.872 -0.595,-1.3 -0.543,-0.71 -0.557,-0.665 -0.16,0.524 m -36.758,2.3 c -0.02,1.1 0.219,3.08 0.53,4.4 l 0.565,2.4 -0.201,-2 c -0.11,-1.1 -0.348,-3.08 -0.529,-4.4 l -0.33,-2.4 -0.035,2 m 37.547,1.8 c -0.012,0.55 0.153,1.27 0.366,1.6 0.509,0.787 0.509,-0.616 0,-1.8 -0.315,-0.733 -0.346,-0.716 -0.366,0.2 m 125.016,1.25 c -0.333,1.667 -0.01,1.99 0.35,0.35 0.152,-0.691 0.193,-1.341 0.091,-1.442 -0.102,-0.102 -0.3,0.389 -0.441,1.092 m -0.604,2.217 c -0.025,0.257 -0.162,0.797 -0.305,1.2 -0.201,0.569 -0.147,0.63 0.238,0.275 0.273,-0.251 0.41,-0.791 0.305,-1.2 -0.105,-0.408 -0.212,-0.532 -0.238,-0.275 M 75.21,275.433 c 0.019,0.722 1.535,4.909 2.182,6.027 0.711,1.229 0.646,0.994 -0.889,-3.26 -1.016,-2.814 -1.311,-3.446 -1.293,-2.767 m 122.036,0.434 c -0.025,0.257 -0.162,0.797 -0.305,1.2 -0.201,0.569 -0.147,0.63 0.238,0.275 0.273,-0.251 0.41,-0.791 0.305,-1.2 -0.105,-0.408 -0.212,-0.532 -0.238,-0.275 M 37.44,277.466 c 0.368,1.533 0.56,1.678 0.56,0.424 0,-0.573 -0.187,-1.158 -0.416,-1.3 -0.273,-0.169 -0.322,0.133 -0.144,0.876 m 158.994,1.134 c -0.033,0.44 -0.59,1.868 -1.239,3.174 -0.649,1.306 -1.101,2.453 -1.005,2.549 0.319,0.319 2.652,-5.216 2.476,-5.875 -0.131,-0.488 -0.188,-0.451 -0.232,0.152 m -158.406,2.076 c 0.09,1.039 0.716,1.92 0.744,1.048 0.015,-0.482 -0.152,-0.988 -0.372,-1.124 -0.22,-0.136 -0.387,-0.102 -0.372,0.076 M 78,282.901 c 0,0.423 3.136,6.436 4.052,7.771 0.632,0.92 1.148,1.865 1.148,2.1 0,0.235 0.141,0.428 0.314,0.428 0.172,0 0.651,0.585 1.064,1.3 0.412,0.715 1.925,2.65 3.362,4.3 3.37,3.872 3.392,3.895 3.21,3.356 -0.142,-0.419 -2.218,-2.987 -4.288,-5.305 C 85.305,295.108 81.056,288.379 79.694,285.5 78.645,283.282 78,282.292 78,282.901 M 38.987,284.2 c 0.168,0.44 0.452,1.34 0.63,2 0.576,2.126 1.205,3.745 1.009,2.6 -0.386,-2.262 -1.099,-4.625 -1.508,-5 -0.309,-0.284 -0.347,-0.167 -0.131,0.4 m 154.189,1.887 c -0.696,1.72 -5.738,9.654 -6.961,10.954 -0.228,0.242 -1.225,1.394 -2.215,2.56 -0.99,1.165 -2.592,2.857 -3.56,3.759 -0.968,0.902 -2.138,2.008 -2.6,2.458 -0.462,0.449 -1.979,1.59 -3.371,2.535 -1.392,0.945 -2.435,1.814 -2.319,1.93 0.117,0.117 0.503,-0.079 0.86,-0.435 0.356,-0.357 0.805,-0.648 0.998,-0.648 1.491,0 12.278,-10.825 14.592,-14.645 2.643,-4.362 3.154,-5.175 3.371,-5.355 0.484,-0.404 2.151,-4.012 1.947,-4.215 -0.116,-0.116 -0.449,0.38 -0.742,1.102 M 44.027,298.4 c -10e-4,0.33 0.263,0.949 0.586,1.376 0.747,0.988 0.739,0.339 -0.013,-0.976 -0.332,-0.58 -0.572,-0.748 -0.573,-0.4 m 1.633,3.601 c 0.23,0.66 0.581,1.301 0.779,1.423 0.5,0.309 0.457,0.091 -0.268,-1.363 -0.796,-1.595 -1.057,-1.626 -0.511,-0.06 m 46.115,0.75 c 0.184,0.303 1.066,1.203 1.961,2 0.894,0.797 1.905,1.719 2.248,2.049 0.879,0.847 8.026,5.6 8.422,5.6 0.18,0 0.387,0.135 0.461,0.3 0.198,0.446 3.905,2.261 4.14,2.026 0.111,-0.111 -1.015,-0.813 -2.502,-1.561 -1.488,-0.748 -2.885,-1.497 -3.105,-1.664 -0.22,-0.168 -1.66,-1.142 -3.2,-2.166 -1.54,-1.023 -4.141,-3.047 -5.78,-4.498 -1.639,-1.45 -2.83,-2.389 -2.645,-2.086 m -44.166,3.125 c 0.005,0.178 0.361,0.774 0.791,1.324 0.43,0.55 0.786,1.203 0.791,1.451 0.012,0.615 1.209,1.603 1.209,0.998 0,-0.247 -0.135,-0.451 -0.3,-0.454 -0.165,-0.002 -0.649,-0.733 -1.076,-1.623 -0.743,-1.551 -1.434,-2.379 -1.415,-1.696 m 122.851,5.166 c -0.298,0.336 -0.461,0.69 -0.365,0.787 0.097,0.097 0.503,-0.185 0.903,-0.627 0.399,-0.441 0.563,-0.795 0.364,-0.787 -0.199,0.009 -0.605,0.29 -0.902,0.627 m -5.46,2.997 c -1.1,0.628 -2.405,1.321 -2.9,1.541 -0.495,0.22 -0.9,0.489 -0.9,0.598 0,0.275 1.04,-0.153 3.175,-1.308 1.004,-0.543 2.275,-1.23 2.825,-1.526 0.55,-0.297 0.73,-0.518 0.4,-0.492 -0.33,0.025 -1.5,0.56 -2.6,1.187 m -51.6,2.761 c 1.101,0.473 1.492,0.473 1.2,0 -0.136,-0.22 -0.642,-0.387 -1.124,-0.372 -0.845,0.027 -0.847,0.041 -0.076,0.372 m 45.2,0 c -0.292,0.473 0.099,0.473 1.2,0 0.771,-0.331 0.769,-0.345 -0.076,-0.372 -0.482,-0.015 -0.988,0.152 -1.124,0.372 m -41.4,1.08 c 2.285,1.027 2.938,1.255 4.2,1.469 0.66,0.111 1.74,0.324 2.4,0.473 1.151,0.259 1.167,0.245 0.4,-0.363 -0.44,-0.348 -1.433,-0.639 -2.206,-0.646 -0.773,-0.007 -2.39,-0.373 -3.594,-0.813 -2.588,-0.946 -3.167,-1.004 -1.2,-0.12 m 39,-0.28 c -0.136,0.22 -0.676,0.4 -1.2,0.4 -0.524,0 -1.064,0.18 -1.2,0.4 -0.136,0.22 -0.936,0.4 -1.778,0.4 -0.841,0 -2.136,0.279 -2.876,0.619 -1.344,0.618 -1.344,0.619 -0.146,0.375 0.66,-0.134 2.01,-0.392 3,-0.575 3.196,-0.588 6.744,-1.978 5.124,-2.007 -0.372,-0.007 -0.788,0.168 -0.924,0.388 M 57.655,321 c 1.64,1.802 1.9,1.802 0.462,0 -0.614,-0.77 -1.256,-1.4 -1.427,-1.4 -0.17,0 0.264,0.63 0.965,1.4 m 69.624,-0.543 c 0.655,0.416 4.321,0.449 4.321,0.039 0,-0.167 -1.09,-0.319 -2.421,-0.337 -1.417,-0.019 -2.205,0.105 -1.9,0.298 m 13.921,-0.048 c 0,0.395 2.927,0.416 4.2,0.031 0.971,-0.294 0.684,-0.355 -1.5,-0.315 -1.485,0.027 -2.7,0.155 -2.7,0.284 m 56.006,4.585 c -0.743,0.767 -1.274,1.443 -1.179,1.504 0.095,0.06 0.829,-0.567 1.632,-1.394 0.802,-0.827 1.332,-1.504 1.178,-1.504 -0.154,0 -0.888,0.627 -1.631,1.394 m 2.204,6.806 c 0.061,3.96 0.308,7.74 0.55,8.4 0.416,1.134 0.427,1.111 0.192,-0.4 -0.137,-0.88 -0.384,-4.66 -0.55,-8.4 l -0.301,-6.8 0.109,7.2 M 63.8,328 c 1.083,1.1 2.06,2 2.17,2 0.11,0 -0.687,-0.9 -1.77,-2 -1.083,-1.1 -2.06,-2 -2.17,-2 -0.11,0 0.687,0.9 1.77,2 m 125.443,4.823 c -0.526,0.438 -0.872,0.882 -0.768,0.985 0.104,0.104 0.611,-0.26 1.126,-0.81 1.123,-1.194 0.961,-1.273 -0.358,-0.175 M 72.4,335.762 c 0,0.11 0.81,0.757 1.8,1.438 0.99,0.681 1.8,1.148 1.8,1.038 0,-0.11 -0.81,-0.757 -1.8,-1.438 -0.99,-0.681 -1.8,-1.148 -1.8,-1.038 m 164.629,3.667 c -0.148,0.586 -0.178,1.155 -0.068,1.265 0.11,0.11 0.32,-0.279 0.468,-0.865 0.147,-0.587 0.177,-1.156 0.067,-1.266 -0.11,-0.11 -0.32,0.279 -0.467,0.866 M 79.6,340.96 c 0,0.089 0.675,0.542 1.5,1.008 l 1.5,0.848 -1.2,-1.006 c -1.101,-0.923 -1.8,-1.253 -1.8,-0.85 m 97.611,0.86 c -1.827,1.289 -1.198,1.272 0.703,-0.02 0.809,-0.55 1.295,-0.991 1.079,-0.98 -0.216,0.01 -1.018,0.46 -1.782,1 m 59.221,-0.115 c -0.035,0.77 -0.826,2.345 -1.381,2.749 -0.192,0.139 -0.275,0.474 -0.185,0.744 0.09,0.269 0.582,-0.324 1.094,-1.319 0.511,-0.995 0.834,-2.05 0.717,-2.344 -0.144,-0.359 -0.224,-0.303 -0.245,0.17 m -33.595,4.695 c 1.159,1.796 1.163,1.801 1.161,1.367 -10e-4,-0.202 -0.466,-0.907 -1.033,-1.567 l -1.031,-1.2 0.903,1.4 m -111.813,0.987 c 0.427,0.323 0.956,0.588 1.176,0.588 0.22,0 0.051,-0.265 -0.376,-0.588 -0.428,-0.323 -0.957,-0.587 -1.177,-0.587 -0.22,0 -0.051,0.264 0.377,0.587 m 139.654,2.426 c -0.618,0.543 -0.964,0.987 -0.77,0.987 0.194,0 0.775,-0.45 1.292,-1 1.195,-1.272 0.931,-1.266 -0.522,0.013 M 99.4,350.667 c 0.44,0.096 1.16,0.32 1.6,0.498 1.746,0.707 3.696,1.233 4.428,1.194 0.756,-0.04 -0.939,-0.599 -3.133,-1.033 -0.608,-0.12 -1.203,-0.377 -1.324,-0.572 -0.12,-0.195 -0.703,-0.333 -1.295,-0.308 -0.8,0.035 -0.871,0.092 -0.276,0.221 m 107.4,-0.107 c 0,0.209 2.763,1.84 3.116,1.84 0.148,0 -0.393,-0.45 -1.202,-1 -1.417,-0.963 -1.914,-1.181 -1.914,-0.84 m -52.113,0.886 c -0.136,0.136 -0.841,0.401 -1.567,0.589 -1.224,0.318 -1.233,0.331 -0.12,0.181 2.254,-0.303 4.155,-0.928 2.967,-0.975 -0.569,-0.023 -1.145,0.07 -1.28,0.205 m 72.613,0.55 c -1.798,1.096 -1.639,1.379 0.2,0.354 1.738,-0.968 1.97,-1.151 1.467,-1.149 -0.202,10e-4 -0.952,0.359 -1.667,0.795 m -81.1,1.604 c -0.292,0.473 0.099,0.473 1.2,0 0.771,-0.331 0.769,-0.345 -0.076,-0.372 -0.482,-0.015 -0.988,0.152 -1.124,0.372 m -31.4,0.556 c 0,0.086 0.617,0.229 1.372,0.317 0.755,0.088 1.284,0.017 1.176,-0.157 -0.193,-0.313 -2.548,-0.461 -2.548,-0.16 m 26.19,0.26 c -0.169,0.273 0.133,0.322 0.876,0.144 1.533,-0.368 1.678,-0.56 0.424,-0.56 -0.573,0 -1.158,0.187 -1.3,0.416 m -15.59,0.749 c 1.98,0.129 4.95,0.129 6.6,0 2.024,-0.159 0.854,-0.236 -3.6,-0.236 -5.134,0 -5.8,0.053 -3,0.236"
       id="path4" />
  </g>
</svg>
